<?xml version="1.0" encoding="UTF-8" standalone="no"?>
<!DOCTYPE svg PUBLIC "-//W3C//DTD SVG 20010904//EN"
              "http://www.w3.org/TR/2001/REC-SVG-20010904/DTD/svg10.dtd">

<svg xmlns="http://www.w3.org/2000/svg"
     width="1024px" height="1024px"
     viewBox="0 0 1024 1024">

      <defs>
          <linearGradient id="myLinearGradient3" x1="0%" y1="0%" x2="100%" y2="100%" spreadMethod="pad">
             <stop offset="0%"   stop-color="#3e3e3e" stop-opacity="1"/>
             <stop offset="100%" stop-color="#808080" stop-opacity="1" />
          </linearGradient>
      </defs>

      <rect x="4" y="4" width="1016px" height="1016px" rx="200" ry="200"
          style="fill:url(#myLinearGradient3); stroke: white; stroke-width: 8;" />

  <path id="Selection"
        fill="white" stroke="none" stroke-width="1"
        d="M 728.00,370.00
           C 728.00,370.00 803.00,370.00 803.00,370.00
             812.30,370.00 830.23,368.73 838.00,372.92
             846.83,377.68 847.89,387.89 848.00,397.00
             848.00,397.00 848.00,467.00 848.00,467.00
             848.01,474.22 847.85,476.85 856.00,477.00
             856.00,477.00 876.00,477.00 876.00,477.00
             877.87,477.00 881.19,477.12 882.86,476.40
             889.24,473.66 886.07,461.39 886.00,456.00
             886.00,456.00 886.00,400.00 886.00,400.00
             886.00,400.00 886.66,391.00 886.66,391.00
             886.66,391.00 886.09,385.00 886.09,385.00
             885.17,371.22 885.21,359.97 874.82,349.09
             866.18,340.05 848.26,335.15 836.00,335.00
             836.00,335.00 728.00,335.00 728.00,335.00
             729.81,327.55 729.05,304.03 729.00,295.00
             728.98,292.10 729.07,288.73 727.55,286.15
             725.51,282.71 722.52,283.02 719.00,283.00
             719.00,283.00 701.00,283.00 701.00,283.00
             697.82,283.01 693.87,282.62 691.60,285.31
             689.71,287.56 690.01,291.23 690.00,294.00
             690.00,294.00 690.00,326.00 690.00,326.00
             690.00,326.00 690.00,466.00 690.00,466.00
             690.00,468.77 689.68,473.29 691.74,475.40
             693.51,477.21 696.66,476.98 699.00,477.00
             699.00,477.00 719.00,477.00 719.00,477.00
             721.07,477.00 724.64,477.25 726.35,476.01
             730.32,473.12 729.00,457.91 729.00,453.00
             729.00,453.00 729.00,399.00 729.00,399.00
             729.00,391.10 729.73,377.13 728.00,370.00 Z
           M 256.00,335.51
           C 256.00,335.51 245.28,337.43 245.28,337.43
             235.50,339.88 226.30,344.70 220.30,353.00
             211.19,365.61 212.00,385.13 212.00,400.00
             212.00,423.17 207.97,456.96 232.00,470.10
             235.02,471.75 239.64,473.54 243.00,474.32
             247.09,475.27 254.06,476.93 258.00,477.00
             258.00,477.00 374.00,477.00 374.00,477.00
             381.22,476.99 383.85,477.15 384.00,469.00
             384.00,469.00 384.00,457.00 384.00,457.00
             383.98,447.37 383.57,445.06 370.00,445.00
             370.00,445.00 283.00,445.00 283.00,445.00
             275.71,445.01 266.56,445.98 260.02,442.07
             248.12,434.96 250.98,409.22 251.00,397.00
             251.01,388.28 251.45,376.51 259.17,370.97
             266.27,365.88 283.25,367.00 292.00,367.00
             292.00,367.00 370.00,367.00 370.00,367.00
             373.29,366.99 378.89,367.16 381.57,365.07
             385.21,362.22 384.01,350.52 384.00,346.00
             383.99,343.23 384.29,339.56 382.40,337.31
             380.47,335.03 377.73,335.05 375.00,335.00
             375.00,335.00 355.00,335.00 355.00,335.00
             355.00,335.00 291.00,335.00 291.00,335.00
             291.00,335.00 256.00,335.51 256.00,335.51 Z
           M 514.00,370.00
           C 514.00,370.00 514.00,467.00 514.00,467.00
             514.01,469.54 513.68,473.48 515.60,475.40
             517.23,477.04 519.86,476.96 522.00,477.00
             522.00,477.00 542.00,477.00 542.00,477.00
             544.74,476.99 548.38,477.31 550.57,475.40
             554.34,472.12 553.00,457.15 553.00,452.00
             553.00,452.00 553.00,401.00 553.00,401.00
             553.00,391.14 553.71,379.56 552.00,370.00
             552.00,370.00 588.00,370.00 588.00,370.00
             593.99,370.00 604.43,369.83 610.00,371.50
             618.89,374.17 621.95,381.46 622.00,390.00
             622.00,390.00 622.00,464.00 622.00,464.00
             622.01,467.49 621.69,472.86 624.51,475.40
             626.49,477.19 629.51,476.98 632.00,477.00
             632.00,477.00 651.00,477.00 651.00,477.00
             661.33,476.98 661.95,473.98 662.00,464.00
             662.00,464.00 662.00,391.00 662.00,391.00
             661.99,383.07 661.49,383.30 660.43,376.00
             658.39,361.95 656.20,351.75 643.00,343.67
             624.71,332.49 600.57,335.00 580.00,335.00
             580.00,335.00 457.00,335.00 457.00,335.00
             442.77,335.02 422.54,339.93 413.79,352.00
             404.11,365.36 405.00,380.45 405.00,396.00
             405.00,396.00 405.00,466.00 405.00,466.00
             405.01,468.91 404.71,473.19 406.89,475.43
             408.67,477.25 411.65,476.99 414.00,477.00
             414.00,477.00 434.00,477.00 434.00,477.00
             442.33,476.98 443.98,477.02 444.00,464.00
             444.00,464.00 444.00,397.00 444.00,397.00
             444.03,390.22 444.66,381.48 449.53,376.34
             454.33,371.27 462.34,370.08 469.00,370.00
             469.00,370.00 514.00,370.00 514.00,370.00 Z
           M 920.10,342.74
           C 912.87,347.21 914.96,358.50 915.00,366.00
             915.02,369.69 914.95,375.52 918.42,377.83
             920.40,379.15 923.69,378.99 926.00,379.00
             926.00,379.00 944.00,379.00 944.00,379.00
             947.19,378.99 950.85,379.43 953.11,376.69
             954.91,374.50 954.95,371.68 955.00,369.00
             955.08,363.71 956.06,348.17 952.99,344.43
             950.94,341.92 947.95,342.04 945.00,342.00
             939.04,341.92 925.23,341.45 920.10,342.74 Z
           M 920.10,420.74
           C 912.87,425.21 914.96,436.50 915.00,444.00
             915.02,447.69 914.95,453.52 918.42,455.83
             920.40,457.15 923.69,456.99 926.00,457.00
             926.00,457.00 944.00,457.00 944.00,457.00
             947.19,456.99 950.85,457.43 953.11,454.69
             954.91,452.50 954.95,449.68 955.00,447.00
             955.08,441.71 956.06,426.17 952.99,422.43
             950.94,419.92 947.95,420.04 945.00,420.00
             939.04,419.92 925.23,419.45 920.10,420.74 Z
           M 208.00,583.00
           C 200.48,584.83 178.97,584.00 170.00,584.00
             170.00,584.00 97.00,584.00 97.00,584.00
             91.60,584.01 90.26,583.96 85.00,585.61
             81.61,586.68 77.79,588.14 74.83,590.12
             60.90,599.47 62.83,617.23 63.00,632.00
             63.10,640.56 64.47,650.31 70.33,656.95
             76.79,664.27 88.62,666.99 98.00,667.00
             98.00,667.00 228.00,667.00 228.00,667.00
             243.46,666.97 246.98,659.37 247.00,645.00
             247.00,645.00 247.00,597.00 247.00,597.00
             247.00,585.90 247.71,574.89 245.51,564.00
             245.51,564.00 244.63,557.00 244.63,557.00
             243.56,551.62 239.57,543.12 235.79,539.17
             226.57,529.54 211.05,525.06 198.00,524.95
             198.00,524.95 81.00,524.95 81.00,524.95
             81.00,524.95 72.02,524.95 72.02,524.95
             64.74,525.93 66.99,539.52 67.00,545.00
             67.01,548.34 66.57,552.80 69.43,555.15
             71.85,557.13 76.03,556.99 79.00,557.00
             79.00,557.00 110.00,557.00 110.00,557.00
             110.00,557.00 179.00,557.00 179.00,557.00
             186.77,556.94 194.53,555.71 200.95,561.27
             209.40,568.59 205.50,574.21 208.00,583.00 Z
           M 309.00,667.00
           C 309.00,667.00 414.00,667.00 414.00,667.00
             418.93,666.99 430.30,665.56 435.00,664.40
             444.44,662.09 454.56,656.31 459.87,648.00
             464.22,641.19 465.10,634.66 466.21,627.00
             467.15,620.44 467.98,623.71 468.00,614.00
             468.00,614.00 468.00,578.00 468.00,578.00
             467.92,571.23 467.09,571.51 466.30,566.00
             466.30,566.00 465.79,559.00 465.79,559.00
             464.86,552.45 460.27,543.02 455.68,538.30
             447.49,529.89 431.55,525.14 420.00,525.00
             420.00,525.00 320.00,525.00 320.00,525.00
             302.80,525.03 282.93,531.11 275.35,548.00
             267.89,564.60 270.00,587.94 270.00,606.00
             270.00,606.00 270.00,713.00 270.00,713.00
             270.01,715.77 269.71,719.44 271.60,721.69
             273.53,723.97 276.27,723.95 279.00,724.00
             279.00,724.00 299.00,724.00 299.00,724.00
             301.89,723.98 305.82,724.38 307.60,721.57
             309.50,718.57 309.00,708.84 309.00,705.00
             309.00,705.00 309.00,667.00 309.00,667.00 Z
           M 534.00,667.00
           C 534.00,667.00 639.00,667.00 639.00,667.00
             643.63,666.99 654.52,665.58 659.00,664.54
             662.18,663.81 668.13,661.55 671.00,659.96
             692.66,647.97 692.00,626.69 692.00,605.00
             692.00,605.00 692.00,574.00 692.00,574.00
             691.85,561.33 689.22,547.48 679.95,538.18
             671.06,529.27 656.36,525.15 644.00,525.00
             644.00,525.00 545.00,525.00 545.00,525.00
             527.73,525.03 507.62,531.00 499.86,548.00
             493.06,562.89 495.00,587.50 495.00,604.00
             495.00,604.00 495.00,713.00 495.00,713.00
             495.00,715.77 494.68,720.29 496.74,722.40
             498.51,724.21 501.66,723.98 504.00,724.00
             504.00,724.00 524.00,724.00 524.00,724.00
             527.99,723.97 531.31,724.24 533.11,719.94
             534.42,716.81 534.00,706.87 534.00,703.00
             534.00,703.00 534.00,667.00 534.00,667.00 Z
           M 742.00,525.12
           C 723.53,529.56 714.31,542.03 715.42,561.00
             715.42,561.00 715.42,574.00 715.42,574.00
             715.34,583.82 719.65,595.65 728.00,601.30
             735.36,606.29 749.19,607.89 758.00,608.00
             758.00,608.00 836.00,608.00 836.00,608.00
             845.60,607.99 856.50,606.60 856.98,620.00
             857.47,633.66 850.74,634.98 839.00,635.00
             839.00,635.00 729.00,635.00 729.00,635.00
             725.48,635.01 719.30,634.76 716.74,637.56
             713.61,640.98 716.11,647.21 715.90,652.00
             715.77,654.81 714.80,658.30 715.16,661.00
             715.87,666.36 719.41,666.91 724.00,667.00
             724.00,667.00 761.00,667.00 761.00,667.00
             761.00,667.00 800.00,667.00 800.00,667.00
             800.00,667.00 858.00,667.00 858.00,667.00
             879.98,666.97 894.72,654.61 895.00,632.00
             895.16,618.48 896.16,603.03 886.33,592.30
             879.62,584.96 868.65,582.02 859.00,582.00
             859.00,582.00 772.00,582.00 772.00,582.00
             766.34,581.99 759.23,582.11 755.59,576.94
             751.85,571.62 752.04,557.50 763.00,556.96
             763.00,556.96 773.00,556.96 773.00,556.96
             773.00,556.96 862.00,556.96 862.00,556.96
             867.95,557.00 883.47,558.62 887.15,553.72
             888.95,551.32 888.96,547.87 889.00,545.00
             889.00,545.00 889.00,537.00 889.00,537.00
             888.99,533.89 889.26,528.99 886.99,526.57
             885.26,524.73 882.32,525.01 880.00,525.12
             880.00,525.12 855.00,525.12 855.00,525.12
             855.00,525.12 781.00,525.12 781.00,525.12
             781.00,525.12 742.00,525.12 742.00,525.12 Z
           M 309.00,635.00
           C 309.00,635.00 309.00,585.00 309.00,585.00
             309.07,579.46 309.94,568.67 312.88,564.09
             317.16,557.42 325.76,556.48 333.00,556.83
             333.00,556.83 397.00,556.83 397.00,556.83
             397.00,556.83 406.00,556.83 406.00,556.83
             420.20,557.26 427.92,561.41 428.00,577.00
             428.00,577.00 428.00,613.00 428.00,613.00
             427.97,630.88 419.30,634.81 403.00,635.00
             403.00,635.00 309.00,635.00 309.00,635.00 Z
           M 534.00,635.00
           C 534.00,635.00 534.00,583.00 534.00,583.00
             534.01,574.39 534.16,565.06 542.00,559.77
             548.19,555.59 556.90,556.92 564.00,557.00
             564.00,557.00 633.00,557.00 633.00,557.00
             635.71,557.01 638.35,556.88 640.96,557.76
             653.94,562.10 653.00,576.98 653.00,588.00
             653.00,588.00 653.00,610.00 653.00,610.00
             652.99,618.74 651.92,628.45 643.00,632.59
             636.20,635.73 616.22,635.00 608.00,635.00
             608.00,635.00 534.00,635.00 534.00,635.00 Z
           M 208.00,608.00
           C 206.42,614.50 207.01,621.35 207.00,628.00
             207.00,630.11 207.24,633.67 206.01,635.43
             203.32,639.26 190.53,638.00 186.00,638.00
             186.00,638.00 120.00,638.00 120.00,638.00
             114.94,637.99 107.11,637.82 103.51,633.72
             99.77,629.47 99.77,614.45 104.28,610.70
             107.69,607.86 112.83,608.01 117.00,608.00
             117.00,608.00 167.00,608.00 167.00,608.00
             167.00,608.00 194.00,608.00 194.00,608.00
             198.69,607.99 203.45,606.92 208.00,608.00 Z" />
</svg>
