<?xml version="1.0" encoding="UTF-8" standalone="no"?>
<!DOCTYPE svg PUBLIC "-//W3C//DTD SVG 20010904//EN"
              "http://www.w3.org/TR/2001/REC-SVG-20010904/DTD/svg10.dtd">

<svg xmlns="http://www.w3.org/2000/svg"
     width="135px" height="135px"
     viewBox="0 0 1024 1024">

      <defs>
          <linearGradient id="myLinearGradient3" x1="0%" y1="0%" x2="100%" y2="100%" spreadMethod="pad">
             <stop offset="0%"   stop-color="#3e79f5" stop-opacity="1"/>
             <stop offset="100%" stop-color="#40479e" stop-opacity="1" />
          </linearGradient>
      </defs>
 
      <rect x="0" y="0" width="1024px" height="1024px" rx="80" ry="80"
          style="fill:url(#myLinearGradient3); stroke: white; stroke-width: 10;" />

  <path id="Selection"
        fill="white" stroke="#40479e" stroke-width="1"
        d="M 309.00,53.11
           C 309.00,53.11 422.00,53.11 422.00,53.11
             422.00,53.11 765.00,53.11 765.00,53.11
             774.68,53.02 776.41,53.75 785.00,58.00
             791.59,61.25 794.80,62.83 799.45,69.00
             805.25,76.72 811.22,89.19 810.98,99.00
             810.88,102.88 810.13,104.39 809.13,108.00
             805.02,122.82 801.15,126.51 793.37,139.00
             793.37,139.00 776.65,167.00 776.65,167.00
             776.65,167.00 730.41,241.00 730.41,241.00
             730.41,241.00 726.59,248.00 726.59,248.00
             726.59,248.00 679.75,323.00 679.75,323.00
             679.75,323.00 666.74,345.00 666.74,345.00
             666.74,345.00 661.18,353.00 661.18,353.00
             661.18,353.00 656.97,361.00 656.97,361.00
             656.97,361.00 649.37,372.00 649.37,372.00
             649.37,372.00 633.68,398.00 633.68,398.00
             633.68,398.00 594.97,461.00 594.97,461.00
             589.84,469.51 584.38,474.98 581.09,485.00
             576.96,497.62 577.79,510.86 578.00,524.00
             578.14,532.32 584.38,546.92 588.75,554.00
             588.75,554.00 594.97,563.00 594.97,563.00
             594.97,563.00 634.45,627.00 634.45,627.00
             634.45,627.00 648.74,651.00 648.74,651.00
             648.74,651.00 655.33,661.00 655.33,661.00
             655.33,661.00 660.38,670.00 660.38,670.00
             660.38,670.00 666.74,679.00 666.74,679.00
             666.74,679.00 689.46,717.00 689.46,717.00
             689.46,717.00 704.29,740.00 704.29,740.00
             704.29,740.00 721.75,769.00 721.75,769.00
             721.75,769.00 747.57,810.00 747.57,810.00
             747.57,810.00 761.86,834.00 761.86,834.00
             761.86,834.00 777.29,858.00 777.29,858.00
             777.29,858.00 794.01,886.00 794.01,886.00
             801.41,897.65 806.15,903.29 809.44,917.00
             810.29,920.55 810.88,920.99 810.98,925.00
             811.25,936.08 805.97,946.53 799.19,955.00
             794.43,960.95 792.51,962.09 786.00,965.70
             778.23,970.01 773.77,970.99 765.00,971.00
             765.00,971.00 259.00,971.00 259.00,971.00
             249.21,970.98 238.85,967.61 231.00,961.59
             219.50,952.77 210.68,932.45 213.63,918.00
             215.55,908.61 225.41,893.38 230.63,885.00
             230.63,885.00 247.35,857.00 247.35,857.00
             247.35,857.00 307.43,760.00 307.43,760.00
             307.43,760.00 328.05,727.00 328.05,727.00
             328.05,727.00 337.25,713.00 337.25,713.00
             337.25,713.00 348.09,694.00 348.09,694.00
             348.09,694.00 362.82,671.00 362.82,671.00
             362.82,671.00 367.76,662.00 367.76,662.00
             367.76,662.00 376.63,649.00 376.63,649.00
             376.63,649.00 386.71,632.00 386.71,632.00
             386.71,632.00 429.03,563.00 429.03,563.00
             437.14,549.54 445.97,538.60 446.00,522.00
             446.00,522.00 446.00,500.00 446.00,500.00
             445.83,486.54 436.67,472.94 429.64,462.00
             429.64,462.00 416.63,440.00 416.63,440.00
             416.63,440.00 403.62,419.00 403.62,419.00
             403.62,419.00 397.46,410.00 397.46,410.00
             397.46,410.00 374.63,372.00 374.63,372.00
             374.63,372.00 367.03,361.00 367.03,361.00
             367.03,361.00 363.41,354.00 363.41,354.00
             363.41,354.00 357.26,345.00 357.26,345.00
             357.26,345.00 346.94,327.00 346.94,327.00
             346.94,327.00 318.58,282.00 318.58,282.00
             318.58,282.00 303.63,257.00 303.63,257.00
             303.63,257.00 296.76,247.00 296.76,247.00
             296.76,247.00 258.71,185.00 258.71,185.00
             258.71,185.00 248.88,169.00 248.88,169.00
             244.72,163.21 245.39,163.36 242.26,158.00
             242.26,158.00 231.24,140.00 231.24,140.00
             221.07,123.31 208.93,110.12 214.17,89.00
             215.07,85.39 218.20,79.41 220.04,76.00
             223.38,69.78 227.81,64.06 234.00,60.46
             239.62,57.19 243.55,54.77 250.00,53.11
             250.00,53.11 309.00,53.11 309.00,53.11 Z
           M 405.72,326.00
           C 405.72,326.00 411.15,334.00 411.15,334.00
             411.15,334.00 441.09,375.00 441.09,375.00
             441.09,375.00 450.43,387.00 450.43,387.00
             450.43,387.00 467.31,412.00 467.31,412.00
             467.31,412.00 476.08,426.00 476.08,426.00
             481.59,433.84 489.89,449.83 492.63,459.00
             492.63,459.00 496.26,478.00 496.26,478.00
             497.34,484.41 497.98,481.33 498.00,490.00
             498.00,490.00 498.00,565.00 498.00,565.00
             498.00,565.00 500.00,588.00 500.00,588.00
             500.00,588.00 499.00,605.00 499.00,605.00
             499.00,605.00 499.95,622.00 499.95,622.00
             499.55,628.05 498.02,626.23 498.00,636.00
             498.00,636.00 498.00,648.00 498.00,648.00
             497.98,657.63 496.79,655.08 495.94,661.00
             495.94,661.00 495.94,668.00 495.94,668.00
             495.94,668.00 494.25,674.00 494.25,674.00
             491.29,690.45 489.11,700.92 480.82,716.00
             471.86,732.28 457.92,746.60 444.00,758.71
             429.22,771.57 413.14,783.04 397.00,794.05
             397.00,794.05 376.00,808.91 376.00,808.91
             376.00,808.91 351.00,825.14 351.00,825.14
             342.95,830.86 326.62,839.87 322.31,848.00
             319.13,854.00 318.90,861.39 319.00,868.00
             319.09,872.91 319.76,874.42 321.33,879.00
             327.24,896.25 342.22,904.97 360.00,905.00
             360.00,905.00 628.00,905.00 628.00,905.00
             628.00,905.00 654.00,905.00 654.00,905.00
             670.90,905.00 686.35,906.31 698.56,892.00
             703.25,886.50 704.40,884.96 705.95,878.00
             707.98,868.94 708.11,872.07 708.00,862.00
             707.84,849.05 705.30,845.22 695.00,837.72
             695.00,837.72 678.00,826.77 678.00,826.77
             678.00,826.77 637.00,800.00 637.00,800.00
             637.00,800.00 618.00,787.88 618.00,787.88
             593.17,769.43 564.87,752.52 546.49,727.00
             536.94,713.73 529.08,693.11 526.25,677.00
             526.25,677.00 524.72,663.00 524.72,663.00
             524.72,663.00 522.05,649.00 522.05,649.00
             522.05,649.00 522.96,637.00 522.96,637.00
             522.96,637.00 522.00,621.00 522.00,621.00
             522.00,621.00 522.00,577.00 522.00,577.00
             522.00,577.00 523.00,558.00 523.00,558.00
             523.00,558.00 522.00,540.00 522.00,540.00
             522.00,540.00 523.00,521.00 523.00,521.00
             523.00,521.00 522.00,506.00 522.00,506.00
             522.00,506.00 524.71,488.00 524.71,488.00
             525.47,481.65 523.94,482.83 526.44,473.00
             531.64,452.54 538.72,441.94 548.83,424.00
             562.43,399.90 580.98,373.08 597.77,351.00
             597.77,351.00 622.44,316.00 622.44,316.00
             624.87,311.14 624.91,303.88 618.98,301.60
             617.13,300.89 614.02,301.00 612.00,301.00
             612.00,301.00 471.00,301.00 471.00,301.00
             471.00,301.00 426.00,301.00 426.00,301.00
             419.86,301.00 407.40,300.44 402.02,301.60
             391.03,307.83 400.81,319.15 405.72,326.00 Z
           M 172.00,386.67
           C 208.73,389.86 241.55,421.21 242.00,459.00
             242.14,471.12 242.38,478.16 238.48,490.00
             227.17,524.34 196.22,543.41 161.00,543.00
             153.90,542.91 144.71,541.00 138.00,538.66
             89.83,521.85 71.82,465.97 97.45,423.00
             107.60,405.99 124.88,393.70 144.00,388.89
             144.00,388.89 160.00,386.67 160.00,386.67
             166.38,385.67 166.23,386.45 172.00,386.67 Z
           M 868.00,386.93
           C 895.70,389.49 917.95,405.04 930.24,430.00
             934.64,438.93 937.88,450.00 938.00,460.00
             938.13,471.51 937.73,479.90 933.92,491.00
             922.40,524.60 891.67,543.40 857.00,543.00
             824.89,542.62 795.51,520.33 785.52,490.00
             781.62,478.16 781.86,471.12 782.00,459.00
             782.10,450.45 784.78,439.77 788.31,432.00
             797.28,412.24 813.40,397.45 834.00,390.52
             844.61,386.95 846.07,387.84 856.00,386.42
             862.16,385.69 862.29,386.40 868.00,386.93 Z
           M 372.71,448.29
           C 397.75,473.32 400.27,515.43 377.91,543.00
             371.68,550.67 363.76,557.08 355.00,561.68
             341.81,568.61 331.39,569.17 317.00,569.00
             310.19,568.92 303.36,567.03 297.00,564.68
             258.51,550.49 242.34,507.00 257.45,470.00
             267.07,446.46 288.63,432.42 313.00,428.43
             334.70,425.75 357.13,432.70 372.71,448.29 Z
           M 751.71,448.29
           C 776.75,473.32 779.27,515.45 756.91,543.00
             750.57,550.81 742.92,557.00 734.00,561.68
             720.81,568.61 710.39,569.17 696.00,569.00
             689.19,568.92 682.36,567.03 676.00,564.68
             637.55,550.50 621.36,506.95 636.45,470.00
             646.00,446.63 667.79,432.39 692.00,428.43
             713.90,425.72 736.00,432.57 751.71,448.29 Z
           M 69.00,762.00
           C 55.72,761.84 50.02,757.51 50.00,744.00
             50.00,744.00 50.00,696.00 50.00,696.00
             50.00,696.00 50.00,669.00 50.00,669.00
             50.03,651.42 56.73,632.12 65.43,617.00
             91.14,572.33 145.97,551.78 195.00,565.42
             206.80,568.71 226.41,576.36 234.00,586.00
             218.18,601.82 209.54,610.60 199.37,631.00
             185.04,659.73 186.00,684.23 186.00,715.00
             186.00,715.00 186.00,762.00 186.00,762.00
             186.00,762.00 69.00,762.00 69.00,762.00 Z
           M 914.00,574.49
           C 938.56,587.54 956.59,608.22 966.80,634.00
             970.93,644.43 973.98,657.77 974.00,669.00
             974.00,669.00 974.00,744.00 974.00,744.00
             973.98,759.09 966.86,761.98 953.00,762.00
             953.00,762.00 838.00,762.00 838.00,762.00
             838.00,762.00 838.00,714.00 838.00,714.00
             838.00,682.78 838.94,661.45 825.11,632.00
             820.21,621.57 812.29,609.64 804.71,601.00
             799.92,595.53 794.25,590.93 790.00,585.00
             823.35,556.81 876.18,554.39 914.00,574.49 Z
           M 353.05,626.00
           C 353.05,626.00 326.05,670.00 326.05,670.00
             326.05,670.00 283.05,740.00 283.05,740.00
             280.40,744.23 272.29,758.99 268.82,760.98
             266.67,762.20 263.43,762.00 261.00,762.00
             261.00,762.00 238.00,762.00 238.00,762.00
             230.19,761.90 223.29,760.02 220.15,752.00
             218.41,747.56 219.00,736.24 219.00,731.00
             219.00,731.00 219.00,687.00 219.00,687.00
             219.08,634.12 264.52,586.08 318.00,586.00
             339.24,585.97 350.47,587.80 370.00,597.00
             367.69,603.25 357.15,619.45 353.05,626.00 Z
           M 706.00,586.00
           C 759.48,586.08 804.92,634.12 805.00,687.00
             805.00,687.00 805.00,744.00 805.00,744.00
             804.84,756.80 798.36,761.85 786.00,762.00
             786.00,762.00 763.00,762.00 763.00,762.00
             760.57,762.00 757.33,762.20 755.18,760.98
             751.71,758.99 743.60,744.23 740.95,740.00
             740.95,740.00 697.95,670.00 697.95,670.00
             697.95,670.00 670.95,626.00 670.95,626.00
             666.85,619.45 656.31,603.25 654.00,597.00
             673.53,587.80 684.76,585.97 706.00,586.00 Z" />
</svg>
