<?xml version="1.0" encoding="UTF-8" standalone="no"?>
<!DOCTYPE svg PUBLIC "-//W3C//DTD SVG 20010904//EN"
              "http://www.w3.org/TR/2001/REC-SVG-20010904/DTD/svg10.dtd">

<svg xmlns="http://www.w3.org/2000/svg"
     width="120px" height="120px"
     viewBox="0 0 1024 1024">

     <defs>
         <linearGradient id="myLinearGradient3" x1="0%" y1="0%" x2="100%" y2="100%" spreadMethod="pad">
            <stop offset="0%"   stop-color="#202020" stop-opacity="1"/>
            <stop offset="100%" stop-color="#606060" stop-opacity="1" />
         </linearGradient>
     </defs>

     <rect x="4" y="4" width="1016px" height="1016px" rx="200" ry="200"
         style="fill:url(#myLinearGradient3); stroke: white; stroke-width: 8;" />

  <path id="Selection"
        fill="white" stroke="white" stroke-width="0"
        d="M 100.00,100.00
           C 100.00,100.00 274.00,100.00 274.00,100.00
             274.00,100.00 274.00,274.00 274.00,274.00
             274.00,274.00 100.00,274.00 100.00,274.00
             100.00,274.00 100.00,100.00 100.00,100.00 Z
           M 325.00,100.00
           C 325.00,100.00 374.00,100.00 374.00,100.00
             374.00,100.00 374.00,125.00 374.00,125.00
             374.00,125.00 400.00,125.00 400.00,125.00
             400.00,125.00 400.00,100.00 400.00,100.00
             400.00,100.00 424.00,100.00 424.00,100.00
             424.00,100.00 424.00,175.00 424.00,175.00
             424.00,175.00 449.00,175.00 449.00,175.00
             449.00,175.00 449.00,199.00 449.00,199.00
             449.00,199.00 424.00,199.00 424.00,199.00
             424.00,199.00 424.00,224.00 424.00,224.00
             424.00,224.00 399.00,224.00 399.00,224.00
             399.00,224.00 399.00,249.00 399.00,249.00
             399.00,249.00 374.00,249.00 374.00,249.00
             374.00,249.00 374.00,275.00 374.00,275.00
             374.00,275.00 400.00,275.00 400.00,275.00
             400.00,275.00 400.00,250.00 400.00,250.00
             400.00,250.00 424.00,250.00 424.00,250.00
             424.00,250.00 424.00,300.00 424.00,300.00
             424.00,300.00 450.00,300.00 450.00,300.00
             450.00,300.00 450.00,250.00 450.00,250.00
             450.00,250.00 474.00,250.00 474.00,250.00
             474.00,250.00 474.00,300.00 474.00,300.00
             474.00,300.00 499.00,300.00 499.00,300.00
             499.00,300.00 499.00,324.00 499.00,324.00
             499.00,324.00 424.00,324.00 424.00,324.00
             424.00,324.00 424.00,374.00 424.00,374.00
             424.00,374.00 399.00,374.00 399.00,374.00
             399.00,374.00 399.00,399.00 399.00,399.00
             399.00,399.00 350.00,399.00 350.00,399.00
             350.00,399.00 350.00,374.00 350.00,374.00
             350.00,374.00 325.00,374.00 325.00,374.00
             325.00,374.00 325.00,350.00 325.00,350.00
             325.00,350.00 400.00,350.00 400.00,350.00
             400.00,350.00 400.00,324.00 400.00,324.00
             400.00,324.00 300.00,324.00 300.00,324.00
             300.00,324.00 300.00,300.00 300.00,300.00
             300.00,300.00 325.00,300.00 325.00,300.00
             325.00,300.00 325.00,275.00 325.00,275.00
             325.00,275.00 350.00,275.00 350.00,275.00
             350.00,275.00 350.00,249.00 350.00,249.00
             350.00,249.00 324.00,249.00 324.00,249.00
             324.00,249.00 324.00,274.00 324.00,274.00
             324.00,274.00 300.00,274.00 300.00,274.00
             300.00,274.00 300.00,225.00 300.00,225.00
             300.00,225.00 375.00,225.00 375.00,225.00
             375.00,225.00 375.00,175.00 375.00,175.00
             375.00,175.00 400.00,175.00 400.00,175.00
             400.00,175.00 400.00,149.00 400.00,149.00
             400.00,149.00 325.00,149.00 325.00,149.00
             325.00,149.00 325.00,100.00 325.00,100.00 Z
           M 450.00,100.00
           C 450.00,100.00 524.00,100.00 524.00,100.00
             524.00,100.00 524.00,125.00 524.00,125.00
             524.00,125.00 549.00,125.00 549.00,125.00
             549.00,125.00 549.00,224.00 549.00,224.00
             549.00,224.00 500.00,224.00 500.00,224.00
             500.00,224.00 500.00,200.00 500.00,200.00
             500.00,200.00 525.00,200.00 525.00,200.00
             525.00,200.00 525.00,174.00 525.00,174.00
             525.00,174.00 500.00,174.00 500.00,174.00
             500.00,174.00 500.00,149.00 500.00,149.00
             500.00,149.00 475.00,149.00 475.00,149.00
             475.00,149.00 475.00,124.00 475.00,124.00
             475.00,124.00 450.00,124.00 450.00,124.00
             450.00,124.00 450.00,100.00 450.00,100.00 Z
           M 550.00,100.00
           C 550.00,100.00 599.00,100.00 599.00,100.00
             599.00,100.00 599.00,124.00 599.00,124.00
             599.00,124.00 550.00,124.00 550.00,124.00
             550.00,124.00 550.00,100.00 550.00,100.00 Z
           M 625.00,100.00
           C 625.00,100.00 699.00,100.00 699.00,100.00
             699.00,100.00 699.00,149.00 699.00,149.00
             699.00,149.00 674.00,149.00 674.00,149.00
             674.00,149.00 674.00,200.00 674.00,200.00
             674.00,200.00 724.00,200.00 724.00,200.00
             724.00,200.00 724.00,224.00 724.00,224.00
             724.00,224.00 650.00,224.00 650.00,224.00
             650.00,224.00 650.00,149.00 650.00,149.00
             650.00,149.00 624.00,149.00 624.00,149.00
             624.00,149.00 624.00,174.00 624.00,174.00
             624.00,174.00 575.00,174.00 575.00,174.00
             575.00,174.00 575.00,150.00 575.00,150.00
             575.00,150.00 600.00,150.00 600.00,150.00
             600.00,150.00 600.00,125.00 600.00,125.00
             600.00,125.00 625.00,125.00 625.00,125.00
             625.00,125.00 625.00,100.00 625.00,100.00 Z
           M 750.00,100.00
           C 750.00,100.00 924.00,100.00 924.00,100.00
             924.00,100.00 924.00,274.00 924.00,274.00
             924.00,274.00 750.00,274.00 750.00,274.00
             750.00,274.00 750.00,100.00 750.00,100.00 Z
           M 250.00,124.00
           C 250.00,124.00 124.00,124.00 124.00,124.00
             124.00,124.00 124.00,250.00 124.00,250.00
             124.00,250.00 250.00,250.00 250.00,250.00
             250.00,250.00 250.00,124.00 250.00,124.00 Z
           M 900.00,124.00
           C 900.00,124.00 774.00,124.00 774.00,124.00
             774.00,124.00 774.00,250.00 774.00,250.00
             774.00,250.00 900.00,250.00 900.00,250.00
             900.00,250.00 900.00,124.00 900.00,124.00 Z
           M 150.00,150.00
           C 150.00,150.00 224.00,150.00 224.00,150.00
             224.00,150.00 224.00,224.00 224.00,224.00
             224.00,224.00 150.00,224.00 150.00,224.00
             150.00,224.00 150.00,150.00 150.00,150.00 Z
           M 450.00,150.00
           C 450.00,150.00 474.00,150.00 474.00,150.00
             474.00,150.00 474.00,174.00 474.00,174.00
             474.00,174.00 450.00,174.00 450.00,174.00
             450.00,174.00 450.00,150.00 450.00,150.00 Z
           M 800.00,150.00
           C 800.00,150.00 874.00,150.00 874.00,150.00
             874.00,150.00 874.00,224.00 874.00,224.00
             874.00,224.00 800.00,224.00 800.00,224.00
             800.00,224.00 800.00,150.00 800.00,150.00 Z
           M 401.00,175.00
           C 401.00,175.00 400.00,175.00 400.00,175.00
             400.00,175.00 401.00,176.00 401.00,176.00
             401.00,176.00 401.00,175.00 401.00,175.00 Z
           M 325.00,175.00
           C 325.00,175.00 349.00,175.00 349.00,175.00
             349.00,175.00 349.00,199.00 349.00,199.00
             349.00,199.00 325.00,199.00 325.00,199.00
             325.00,199.00 325.00,175.00 325.00,175.00 Z
           M 475.00,175.00
           C 475.00,175.00 499.00,175.00 499.00,175.00
             499.00,175.00 499.00,199.00 499.00,199.00
             499.00,199.00 475.00,199.00 475.00,199.00
             475.00,199.00 475.00,175.00 475.00,175.00 Z
           M 674.00,200.00
           C 674.00,200.00 673.00,200.00 673.00,200.00
             673.00,200.00 674.00,201.00 674.00,201.00
             674.00,201.00 674.00,200.00 674.00,200.00 Z
           M 575.00,200.00
           C 575.00,200.00 599.00,200.00 599.00,200.00
             599.00,200.00 599.00,224.00 599.00,224.00
             599.00,224.00 575.00,224.00 575.00,224.00
             575.00,224.00 575.00,200.00 575.00,200.00 Z
           M 376.00,225.00
           C 376.00,225.00 375.00,225.00 375.00,225.00
             375.00,225.00 376.00,226.00 376.00,226.00
             376.00,226.00 376.00,225.00 376.00,225.00 Z
           M 550.00,225.00
           C 550.00,225.00 574.00,225.00 574.00,225.00
             574.00,225.00 574.00,275.00 574.00,275.00
             574.00,275.00 600.00,275.00 600.00,275.00
             600.00,275.00 600.00,225.00 600.00,225.00
             600.00,225.00 649.00,225.00 649.00,225.00
             649.00,225.00 649.00,249.00 649.00,249.00
             649.00,249.00 624.00,249.00 624.00,249.00
             624.00,249.00 624.00,275.00 624.00,275.00
             624.00,275.00 649.00,275.00 649.00,275.00
             649.00,275.00 649.00,324.00 649.00,324.00
             649.00,324.00 625.00,324.00 625.00,324.00
             625.00,324.00 625.00,299.00 625.00,299.00
             625.00,299.00 599.00,299.00 599.00,299.00
             599.00,299.00 599.00,324.00 599.00,324.00
             599.00,324.00 550.00,324.00 550.00,324.00
             550.00,324.00 550.00,299.00 550.00,299.00
             550.00,299.00 525.00,299.00 525.00,299.00
             525.00,299.00 525.00,275.00 525.00,275.00
             525.00,275.00 550.00,275.00 550.00,275.00
             550.00,275.00 550.00,225.00 550.00,225.00 Z
           M 251.00,250.00
           C 251.00,250.00 250.00,250.00 250.00,250.00
             250.00,250.00 251.00,251.00 251.00,251.00
             251.00,251.00 251.00,250.00 251.00,250.00 Z
           M 774.00,250.00
           C 774.00,250.00 773.00,250.00 773.00,250.00
             773.00,250.00 774.00,251.00 774.00,251.00
             774.00,251.00 774.00,250.00 774.00,250.00 Z
           M 500.00,250.00
           C 500.00,250.00 524.00,250.00 524.00,250.00
             524.00,250.00 524.00,274.00 524.00,274.00
             524.00,274.00 500.00,274.00 500.00,274.00
             500.00,274.00 500.00,250.00 500.00,250.00 Z
           M 650.00,250.00
           C 650.00,250.00 674.00,250.00 674.00,250.00
             674.00,250.00 674.00,274.00 674.00,274.00
             674.00,274.00 650.00,274.00 650.00,274.00
             650.00,274.00 650.00,250.00 650.00,250.00 Z
           M 700.00,250.00
           C 700.00,250.00 724.00,250.00 724.00,250.00
             724.00,250.00 724.00,274.00 724.00,274.00
             724.00,274.00 700.00,274.00 700.00,274.00
             700.00,274.00 700.00,250.00 700.00,250.00 Z
           M 351.00,275.00
           C 351.00,275.00 350.00,275.00 350.00,275.00
             350.00,275.00 351.00,276.00 351.00,276.00
             351.00,276.00 351.00,275.00 351.00,275.00 Z
           M 401.00,275.00
           C 401.00,275.00 400.00,275.00 400.00,275.00
             400.00,275.00 401.00,276.00 401.00,276.00
             401.00,276.00 401.00,275.00 401.00,275.00 Z
           M 574.00,275.00
           C 574.00,275.00 573.00,275.00 573.00,275.00
             573.00,275.00 574.00,276.00 574.00,276.00
             574.00,276.00 574.00,275.00 574.00,275.00 Z
           M 624.00,275.00
           C 624.00,275.00 623.00,275.00 623.00,275.00
             623.00,275.00 624.00,276.00 624.00,276.00
             624.00,276.00 624.00,275.00 624.00,275.00 Z
           M 675.00,275.00
           C 675.00,275.00 699.00,275.00 699.00,275.00
             699.00,275.00 699.00,300.00 699.00,300.00
             699.00,300.00 749.00,300.00 749.00,300.00
             749.00,300.00 749.00,325.00 749.00,325.00
             749.00,325.00 775.00,325.00 775.00,325.00
             775.00,325.00 775.00,300.00 775.00,300.00
             775.00,300.00 799.00,300.00 799.00,300.00
             799.00,300.00 799.00,350.00 799.00,350.00
             799.00,350.00 824.00,350.00 824.00,350.00
             824.00,350.00 824.00,375.00 824.00,375.00
             824.00,375.00 849.00,375.00 849.00,375.00
             849.00,375.00 849.00,424.00 849.00,424.00
             849.00,424.00 825.00,424.00 825.00,424.00
             825.00,424.00 825.00,399.00 825.00,399.00
             825.00,399.00 800.00,399.00 800.00,399.00
             800.00,399.00 800.00,374.00 800.00,374.00
             800.00,374.00 774.00,374.00 774.00,374.00
             774.00,374.00 774.00,524.00 774.00,524.00
             774.00,524.00 750.00,524.00 750.00,524.00
             750.00,524.00 750.00,474.00 750.00,474.00
             750.00,474.00 724.00,474.00 724.00,474.00
             724.00,474.00 724.00,499.00 724.00,499.00
             724.00,499.00 675.00,499.00 675.00,499.00
             675.00,499.00 675.00,474.00 675.00,474.00
             675.00,474.00 650.00,474.00 650.00,474.00
             650.00,474.00 650.00,450.00 650.00,450.00
             650.00,450.00 675.00,450.00 675.00,450.00
             675.00,450.00 675.00,425.00 675.00,425.00
             675.00,425.00 699.00,425.00 699.00,425.00
             699.00,425.00 699.00,450.00 699.00,450.00
             699.00,450.00 725.00,450.00 725.00,450.00
             725.00,450.00 725.00,400.00 725.00,400.00
             725.00,400.00 750.00,400.00 750.00,400.00
             750.00,400.00 750.00,374.00 750.00,374.00
             750.00,374.00 725.00,374.00 725.00,374.00
             725.00,374.00 725.00,324.00 725.00,324.00
             725.00,324.00 675.00,324.00 675.00,324.00
             675.00,324.00 675.00,275.00 675.00,275.00 Z
           M 326.00,300.00
           C 326.00,300.00 325.00,300.00 325.00,300.00
             325.00,300.00 326.00,301.00 326.00,301.00
             326.00,301.00 326.00,300.00 326.00,300.00 Z
           M 451.00,300.00
           C 451.00,300.00 450.00,300.00 450.00,300.00
             450.00,300.00 451.00,301.00 451.00,301.00
             451.00,301.00 451.00,300.00 451.00,300.00 Z
           M 699.00,300.00
           C 699.00,300.00 698.00,300.00 698.00,300.00
             698.00,300.00 699.00,301.00 699.00,301.00
             699.00,301.00 699.00,300.00 699.00,300.00 Z
           M 100.00,300.00
           C 100.00,300.00 124.00,300.00 124.00,300.00
             124.00,300.00 124.00,324.00 124.00,324.00
             124.00,324.00 100.00,324.00 100.00,324.00
             100.00,324.00 100.00,300.00 100.00,300.00 Z
           M 175.00,300.00
           C 175.00,300.00 199.00,300.00 199.00,300.00
             199.00,300.00 199.00,325.00 199.00,325.00
             199.00,325.00 225.00,325.00 225.00,325.00
             225.00,325.00 225.00,300.00 225.00,300.00
             225.00,300.00 274.00,300.00 274.00,300.00
             274.00,300.00 274.00,324.00 274.00,324.00
             274.00,324.00 249.00,324.00 249.00,324.00
             249.00,324.00 249.00,349.00 249.00,349.00
             249.00,349.00 224.00,349.00 224.00,349.00
             224.00,349.00 224.00,374.00 224.00,374.00
             224.00,374.00 150.00,374.00 150.00,374.00
             150.00,374.00 150.00,349.00 150.00,349.00
             150.00,349.00 125.00,349.00 125.00,349.00
             125.00,349.00 125.00,325.00 125.00,325.00
             125.00,325.00 175.00,325.00 175.00,325.00
             175.00,325.00 175.00,300.00 175.00,300.00 Z
           M 176.00,325.00
           C 176.00,325.00 175.00,325.00 175.00,325.00
             175.00,325.00 176.00,326.00 176.00,326.00
             176.00,326.00 176.00,325.00 176.00,325.00 Z
           M 226.00,325.00
           C 226.00,325.00 225.00,325.00 225.00,325.00
             225.00,325.00 226.00,326.00 226.00,326.00
             226.00,326.00 226.00,325.00 226.00,325.00 Z
           M 749.00,325.00
           C 749.00,325.00 748.00,325.00 748.00,325.00
             748.00,325.00 749.00,326.00 749.00,326.00
             749.00,326.00 749.00,325.00 749.00,325.00 Z
           M 275.00,325.00
           C 275.00,325.00 299.00,325.00 299.00,325.00
             299.00,325.00 299.00,349.00 299.00,349.00
             299.00,349.00 275.00,349.00 275.00,349.00
             275.00,349.00 275.00,325.00 275.00,325.00 Z
           M 500.00,325.00
           C 500.00,325.00 524.00,325.00 524.00,325.00
             524.00,325.00 524.00,349.00 524.00,349.00
             524.00,349.00 500.00,349.00 500.00,349.00
             500.00,349.00 500.00,325.00 500.00,325.00 Z
           M 600.00,325.00
           C 600.00,325.00 624.00,325.00 624.00,325.00
             624.00,325.00 624.00,349.00 624.00,349.00
             624.00,349.00 600.00,349.00 600.00,349.00
             600.00,349.00 600.00,325.00 600.00,325.00 Z
           M 650.00,325.00
           C 650.00,325.00 674.00,325.00 674.00,325.00
             674.00,325.00 674.00,375.00 674.00,375.00
             674.00,375.00 699.00,375.00 699.00,375.00
             699.00,375.00 699.00,399.00 699.00,399.00
             699.00,399.00 674.00,399.00 674.00,399.00
             674.00,399.00 674.00,424.00 674.00,424.00
             674.00,424.00 649.00,424.00 649.00,424.00
             649.00,424.00 649.00,449.00 649.00,449.00
             649.00,449.00 625.00,449.00 625.00,449.00
             625.00,449.00 625.00,399.00 625.00,399.00
             625.00,399.00 600.00,399.00 600.00,399.00
             600.00,399.00 600.00,375.00 600.00,375.00
             600.00,375.00 650.00,375.00 650.00,375.00
             650.00,375.00 650.00,325.00 650.00,325.00 Z
           M 900.00,325.00
           C 900.00,325.00 924.00,325.00 924.00,325.00
             924.00,325.00 924.00,449.00 924.00,449.00
             924.00,449.00 899.00,449.00 899.00,449.00
             899.00,449.00 899.00,550.00 899.00,550.00
             899.00,550.00 924.00,550.00 924.00,550.00
             924.00,550.00 924.00,599.00 924.00,599.00
             924.00,599.00 899.00,599.00 899.00,599.00
             899.00,599.00 899.00,625.00 899.00,625.00
             899.00,625.00 924.00,625.00 924.00,625.00
             924.00,625.00 924.00,674.00 924.00,674.00
             924.00,674.00 900.00,674.00 900.00,674.00
             900.00,674.00 900.00,649.00 900.00,649.00
             900.00,649.00 875.00,649.00 875.00,649.00
             875.00,649.00 875.00,574.00 875.00,574.00
             875.00,574.00 850.00,574.00 850.00,574.00
             850.00,574.00 850.00,550.00 850.00,550.00
             850.00,550.00 875.00,550.00 875.00,550.00
             875.00,550.00 875.00,474.00 875.00,474.00
             875.00,474.00 824.00,474.00 824.00,474.00
             824.00,474.00 824.00,524.00 824.00,524.00
             824.00,524.00 800.00,524.00 800.00,524.00
             800.00,524.00 800.00,425.00 800.00,425.00
             800.00,425.00 824.00,425.00 824.00,425.00
             824.00,425.00 824.00,450.00 824.00,450.00
             824.00,450.00 875.00,450.00 875.00,450.00
             875.00,450.00 875.00,400.00 875.00,400.00
             875.00,400.00 900.00,400.00 900.00,400.00
             900.00,400.00 900.00,325.00 900.00,325.00 Z
           M 401.00,350.00
           C 401.00,350.00 400.00,350.00 400.00,350.00
             400.00,350.00 401.00,351.00 401.00,351.00
             401.00,351.00 401.00,350.00 401.00,350.00 Z
           M 799.00,350.00
           C 799.00,350.00 798.00,350.00 798.00,350.00
             798.00,350.00 799.00,351.00 799.00,351.00
             799.00,351.00 799.00,350.00 799.00,350.00 Z
           M 100.00,350.00
           C 100.00,350.00 124.00,350.00 124.00,350.00
             124.00,350.00 124.00,374.00 124.00,374.00
             124.00,374.00 100.00,374.00 100.00,374.00
             100.00,374.00 100.00,350.00 100.00,350.00 Z
           M 250.00,350.00
           C 250.00,350.00 274.00,350.00 274.00,350.00
             274.00,350.00 274.00,374.00 274.00,374.00
             274.00,374.00 250.00,374.00 250.00,374.00
             250.00,374.00 250.00,350.00 250.00,350.00 Z
           M 525.00,350.00
           C 525.00,350.00 549.00,350.00 549.00,350.00
             549.00,350.00 549.00,399.00 549.00,399.00
             549.00,399.00 525.00,399.00 525.00,399.00
             525.00,399.00 525.00,350.00 525.00,350.00 Z
           M 575.00,350.00
           C 575.00,350.00 599.00,350.00 599.00,350.00
             599.00,350.00 599.00,374.00 599.00,374.00
             599.00,374.00 575.00,374.00 575.00,374.00
             575.00,374.00 575.00,350.00 575.00,350.00 Z
           M 850.00,350.00
           C 850.00,350.00 874.00,350.00 874.00,350.00
             874.00,350.00 874.00,374.00 874.00,374.00
             874.00,374.00 850.00,374.00 850.00,374.00
             850.00,374.00 850.00,350.00 850.00,350.00 Z
           M 674.00,375.00
           C 674.00,375.00 673.00,375.00 673.00,375.00
             673.00,375.00 674.00,376.00 674.00,376.00
             674.00,376.00 674.00,375.00 674.00,375.00 Z
           M 824.00,375.00
           C 824.00,375.00 823.00,375.00 823.00,375.00
             823.00,375.00 824.00,376.00 824.00,376.00
             824.00,376.00 824.00,375.00 824.00,375.00 Z
           M 125.00,375.00
           C 125.00,375.00 149.00,375.00 149.00,375.00
             149.00,375.00 149.00,400.00 149.00,400.00
             149.00,400.00 199.00,400.00 199.00,400.00
             199.00,400.00 199.00,499.00 199.00,499.00
             199.00,499.00 174.00,499.00 174.00,499.00
             174.00,499.00 174.00,525.00 174.00,525.00
             174.00,525.00 199.00,525.00 199.00,525.00
             199.00,525.00 199.00,549.00 199.00,549.00
             199.00,549.00 125.00,549.00 125.00,549.00
             125.00,549.00 125.00,525.00 125.00,525.00
             125.00,525.00 150.00,525.00 150.00,525.00
             150.00,525.00 150.00,475.00 150.00,475.00
             150.00,475.00 175.00,475.00 175.00,475.00
             175.00,475.00 175.00,449.00 175.00,449.00
             175.00,449.00 150.00,449.00 150.00,449.00
             150.00,449.00 150.00,424.00 150.00,424.00
             150.00,424.00 124.00,424.00 124.00,424.00
             124.00,424.00 124.00,449.00 124.00,449.00
             124.00,449.00 100.00,449.00 100.00,449.00
             100.00,449.00 100.00,400.00 100.00,400.00
             100.00,400.00 125.00,400.00 125.00,400.00
             125.00,400.00 125.00,375.00 125.00,375.00 Z
           M 225.00,375.00
           C 225.00,375.00 249.00,375.00 249.00,375.00
             249.00,375.00 249.00,399.00 249.00,399.00
             249.00,399.00 225.00,399.00 225.00,399.00
             225.00,399.00 225.00,375.00 225.00,375.00 Z
           M 275.00,375.00
           C 275.00,375.00 299.00,375.00 299.00,375.00
             299.00,375.00 299.00,399.00 299.00,399.00
             299.00,399.00 275.00,399.00 275.00,399.00
             275.00,399.00 275.00,375.00 275.00,375.00 Z
           M 450.00,375.00
           C 450.00,375.00 499.00,375.00 499.00,375.00
             499.00,375.00 499.00,399.00 499.00,399.00
             499.00,399.00 450.00,399.00 450.00,399.00
             450.00,399.00 450.00,375.00 450.00,375.00 Z
           M 250.00,400.00
           C 250.00,400.00 274.00,400.00 274.00,400.00
             274.00,400.00 274.00,424.00 274.00,424.00
             274.00,424.00 250.00,424.00 250.00,424.00
             250.00,424.00 250.00,400.00 250.00,400.00 Z
           M 300.00,400.00
           C 300.00,400.00 324.00,400.00 324.00,400.00
             324.00,400.00 324.00,450.00 324.00,450.00
             324.00,450.00 424.00,450.00 424.00,450.00
             424.00,450.00 424.00,474.00 424.00,474.00
             424.00,474.00 399.00,474.00 399.00,474.00
             399.00,474.00 399.00,524.00 399.00,524.00
             399.00,524.00 375.00,524.00 375.00,524.00
             375.00,524.00 375.00,474.00 375.00,474.00
             375.00,474.00 300.00,474.00 300.00,474.00
             300.00,474.00 300.00,400.00 300.00,400.00 Z
           M 400.00,400.00
           C 400.00,400.00 424.00,400.00 424.00,400.00
             424.00,400.00 424.00,424.00 424.00,424.00
             424.00,424.00 400.00,424.00 400.00,424.00
             400.00,424.00 400.00,400.00 400.00,400.00 Z
           M 225.00,425.00
           C 225.00,425.00 249.00,425.00 249.00,425.00
             249.00,425.00 249.00,449.00 249.00,449.00
             249.00,449.00 225.00,449.00 225.00,449.00
             225.00,449.00 225.00,425.00 225.00,425.00 Z
           M 425.00,425.00
           C 425.00,425.00 449.00,425.00 449.00,425.00
             449.00,425.00 449.00,449.00 449.00,449.00
             449.00,449.00 425.00,449.00 425.00,449.00
             425.00,449.00 425.00,425.00 425.00,425.00 Z
           M 475.00,425.00
           C 475.00,425.00 524.00,425.00 524.00,425.00
             524.00,425.00 524.00,449.00 524.00,449.00
             524.00,449.00 475.00,449.00 475.00,449.00
             475.00,449.00 475.00,425.00 475.00,425.00 Z
           M 699.00,450.00
           C 699.00,450.00 698.00,450.00 698.00,450.00
             698.00,450.00 699.00,451.00 699.00,451.00
             699.00,451.00 699.00,450.00 699.00,450.00 Z
           M 824.00,450.00
           C 824.00,450.00 823.00,450.00 823.00,450.00
             823.00,450.00 824.00,451.00 824.00,451.00
             824.00,451.00 824.00,450.00 824.00,450.00 Z
           M 125.00,450.00
           C 125.00,450.00 149.00,450.00 149.00,450.00
             149.00,450.00 149.00,474.00 149.00,474.00
             149.00,474.00 125.00,474.00 125.00,474.00
             125.00,474.00 125.00,450.00 125.00,450.00 Z
           M 250.00,450.00
           C 250.00,450.00 274.00,450.00 274.00,450.00
             274.00,450.00 274.00,474.00 274.00,474.00
             274.00,474.00 250.00,474.00 250.00,474.00
             250.00,474.00 250.00,450.00 250.00,450.00 Z
           M 450.00,450.00
           C 450.00,450.00 474.00,450.00 474.00,450.00
             474.00,450.00 474.00,475.00 474.00,475.00
             474.00,475.00 499.00,475.00 499.00,475.00
             499.00,475.00 499.00,499.00 499.00,499.00
             499.00,499.00 474.00,499.00 474.00,499.00
             474.00,499.00 474.00,575.00 474.00,575.00
             474.00,575.00 550.00,575.00 550.00,575.00
             550.00,575.00 550.00,525.00 550.00,525.00
             550.00,525.00 574.00,525.00 574.00,525.00
             574.00,525.00 574.00,575.00 574.00,575.00
             574.00,575.00 600.00,575.00 600.00,575.00
             600.00,575.00 600.00,550.00 600.00,550.00
             600.00,550.00 624.00,550.00 624.00,550.00
             624.00,550.00 624.00,599.00 624.00,599.00
             624.00,599.00 599.00,599.00 599.00,599.00
             599.00,599.00 599.00,625.00 599.00,625.00
             599.00,625.00 625.00,625.00 625.00,625.00
             625.00,625.00 625.00,600.00 625.00,600.00
             625.00,600.00 675.00,600.00 675.00,600.00
             675.00,600.00 675.00,575.00 675.00,575.00
             675.00,575.00 699.00,575.00 699.00,575.00
             699.00,575.00 699.00,600.00 699.00,600.00
             699.00,600.00 724.00,600.00 724.00,600.00
             724.00,600.00 724.00,625.00 724.00,625.00
             724.00,625.00 774.00,625.00 774.00,625.00
             774.00,625.00 774.00,650.00 774.00,650.00
             774.00,650.00 799.00,650.00 799.00,650.00
             799.00,650.00 799.00,674.00 799.00,674.00
             799.00,674.00 774.00,674.00 774.00,674.00
             774.00,674.00 774.00,700.00 774.00,700.00
             774.00,700.00 824.00,700.00 824.00,700.00
             824.00,700.00 824.00,725.00 824.00,725.00
             824.00,725.00 849.00,725.00 849.00,725.00
             849.00,725.00 849.00,750.00 849.00,750.00
             849.00,750.00 899.00,750.00 899.00,750.00
             899.00,750.00 899.00,774.00 899.00,774.00
             899.00,774.00 824.00,774.00 824.00,774.00
             824.00,774.00 824.00,800.00 824.00,800.00
             824.00,800.00 849.00,800.00 849.00,800.00
             849.00,800.00 849.00,824.00 849.00,824.00
             849.00,824.00 824.00,824.00 824.00,824.00
             824.00,824.00 824.00,850.00 824.00,850.00
             824.00,850.00 849.00,850.00 849.00,850.00
             849.00,850.00 849.00,874.00 849.00,874.00
             849.00,874.00 800.00,874.00 800.00,874.00
             800.00,874.00 800.00,824.00 800.00,824.00
             800.00,824.00 774.00,824.00 774.00,824.00
             774.00,824.00 774.00,849.00 774.00,849.00
             774.00,849.00 750.00,849.00 750.00,849.00
             750.00,849.00 750.00,824.00 750.00,824.00
             750.00,824.00 700.00,824.00 700.00,824.00
             700.00,824.00 700.00,724.00 700.00,724.00
             700.00,724.00 675.00,724.00 675.00,724.00
             675.00,724.00 675.00,700.00 675.00,700.00
             675.00,700.00 750.00,700.00 750.00,700.00
             750.00,700.00 750.00,674.00 750.00,674.00
             750.00,674.00 725.00,674.00 725.00,674.00
             725.00,674.00 725.00,649.00 725.00,649.00
             725.00,649.00 700.00,649.00 700.00,649.00
             700.00,649.00 700.00,624.00 700.00,624.00
             700.00,624.00 674.00,624.00 674.00,624.00
             674.00,624.00 674.00,649.00 674.00,649.00
             674.00,649.00 624.00,649.00 624.00,649.00
             624.00,649.00 624.00,674.00 624.00,674.00
             624.00,674.00 600.00,674.00 600.00,674.00
             600.00,674.00 600.00,649.00 600.00,649.00
             600.00,649.00 499.00,649.00 499.00,649.00
             499.00,649.00 499.00,674.00 499.00,674.00
             499.00,674.00 475.00,674.00 475.00,674.00
             475.00,674.00 475.00,649.00 475.00,649.00
             475.00,649.00 424.00,649.00 424.00,649.00
             424.00,649.00 424.00,675.00 424.00,675.00
             424.00,675.00 474.00,675.00 474.00,675.00
             474.00,675.00 474.00,699.00 474.00,699.00
             474.00,699.00 399.00,699.00 399.00,699.00
             399.00,699.00 399.00,750.00 399.00,750.00
             399.00,750.00 424.00,750.00 424.00,750.00
             424.00,750.00 424.00,800.00 424.00,800.00
             424.00,800.00 449.00,800.00 449.00,800.00
             449.00,800.00 449.00,825.00 449.00,825.00
             449.00,825.00 475.00,825.00 475.00,825.00
             475.00,825.00 475.00,800.00 475.00,800.00
             475.00,800.00 500.00,800.00 500.00,800.00
             500.00,800.00 500.00,775.00 500.00,775.00
             500.00,775.00 524.00,775.00 524.00,775.00
             524.00,775.00 524.00,824.00 524.00,824.00
             524.00,824.00 499.00,824.00 499.00,824.00
             499.00,824.00 499.00,849.00 499.00,849.00
             499.00,849.00 474.00,849.00 474.00,849.00
             474.00,849.00 474.00,874.00 474.00,874.00
             474.00,874.00 400.00,874.00 400.00,874.00
             400.00,874.00 400.00,774.00 400.00,774.00
             400.00,774.00 350.00,774.00 350.00,774.00
             350.00,774.00 350.00,750.00 350.00,750.00
             350.00,750.00 375.00,750.00 375.00,750.00
             375.00,750.00 375.00,724.00 375.00,724.00
             375.00,724.00 350.00,724.00 350.00,724.00
             350.00,724.00 350.00,700.00 350.00,700.00
             350.00,700.00 375.00,700.00 375.00,700.00
             375.00,700.00 375.00,675.00 375.00,675.00
             375.00,675.00 400.00,675.00 400.00,675.00
             400.00,675.00 400.00,649.00 400.00,649.00
             400.00,649.00 374.00,649.00 374.00,649.00
             374.00,649.00 374.00,674.00 374.00,674.00
             374.00,674.00 350.00,674.00 350.00,674.00
             350.00,674.00 350.00,649.00 350.00,649.00
             350.00,649.00 325.00,649.00 325.00,649.00
             325.00,649.00 325.00,625.00 325.00,625.00
             325.00,625.00 350.00,625.00 350.00,625.00
             350.00,625.00 350.00,600.00 350.00,600.00
             350.00,600.00 399.00,600.00 399.00,600.00
             399.00,600.00 399.00,625.00 399.00,625.00
             399.00,625.00 500.00,625.00 500.00,625.00
             500.00,625.00 500.00,599.00 500.00,599.00
             500.00,599.00 450.00,599.00 450.00,599.00
             450.00,599.00 450.00,574.00 450.00,574.00
             450.00,574.00 400.00,574.00 400.00,574.00
             400.00,574.00 400.00,525.00 400.00,525.00
             400.00,525.00 424.00,525.00 424.00,525.00
             424.00,525.00 424.00,550.00 424.00,550.00
             424.00,550.00 450.00,550.00 450.00,550.00
             450.00,550.00 450.00,450.00 450.00,450.00 Z
           M 600.00,450.00
           C 600.00,450.00 624.00,450.00 624.00,450.00
             624.00,450.00 624.00,474.00 624.00,474.00
             624.00,474.00 600.00,474.00 600.00,474.00
             600.00,474.00 600.00,450.00 600.00,450.00 Z
           M 176.00,475.00
           C 176.00,475.00 175.00,475.00 175.00,475.00
             175.00,475.00 176.00,476.00 176.00,476.00
             176.00,476.00 176.00,475.00 176.00,475.00 Z
           M 225.00,475.00
           C 225.00,475.00 249.00,475.00 249.00,475.00
             249.00,475.00 249.00,499.00 249.00,499.00
             249.00,499.00 225.00,499.00 225.00,499.00
             225.00,499.00 225.00,475.00 225.00,475.00 Z
           M 275.00,475.00
           C 275.00,475.00 299.00,475.00 299.00,475.00
             299.00,475.00 299.00,499.00 299.00,499.00
             299.00,499.00 275.00,499.00 275.00,499.00
             275.00,499.00 275.00,475.00 275.00,475.00 Z
           M 525.00,475.00
           C 525.00,475.00 599.00,475.00 599.00,475.00
             599.00,475.00 599.00,500.00 599.00,500.00
             599.00,500.00 625.00,500.00 625.00,500.00
             625.00,500.00 625.00,475.00 625.00,475.00
             625.00,475.00 649.00,475.00 649.00,475.00
             649.00,475.00 649.00,500.00 649.00,500.00
             649.00,500.00 674.00,500.00 674.00,500.00
             674.00,500.00 674.00,525.00 674.00,525.00
             674.00,525.00 749.00,525.00 749.00,525.00
             749.00,525.00 749.00,549.00 749.00,549.00
             749.00,549.00 724.00,549.00 724.00,549.00
             724.00,549.00 724.00,574.00 724.00,574.00
             724.00,574.00 700.00,574.00 700.00,574.00
             700.00,574.00 700.00,549.00 700.00,549.00
             700.00,549.00 625.00,549.00 625.00,549.00
             625.00,549.00 625.00,524.00 625.00,524.00
             625.00,524.00 575.00,524.00 575.00,524.00
             575.00,524.00 575.00,499.00 575.00,499.00
             575.00,499.00 549.00,499.00 549.00,499.00
             549.00,499.00 549.00,524.00 549.00,524.00
             549.00,524.00 524.00,524.00 524.00,524.00
             524.00,524.00 524.00,549.00 524.00,549.00
             524.00,549.00 500.00,549.00 500.00,549.00
             500.00,549.00 500.00,500.00 500.00,500.00
             500.00,500.00 525.00,500.00 525.00,500.00
             525.00,500.00 525.00,475.00 525.00,475.00 Z
           M 649.00,500.00
           C 649.00,500.00 648.00,500.00 648.00,500.00
             648.00,500.00 649.00,501.00 649.00,501.00
             649.00,501.00 649.00,500.00 649.00,500.00 Z
           M 100.00,500.00
           C 100.00,500.00 124.00,500.00 124.00,500.00
             124.00,500.00 124.00,524.00 124.00,524.00
             124.00,524.00 100.00,524.00 100.00,524.00
             100.00,524.00 100.00,500.00 100.00,500.00 Z
           M 250.00,500.00
           C 250.00,500.00 274.00,500.00 274.00,500.00
             274.00,500.00 274.00,524.00 274.00,524.00
             274.00,524.00 250.00,524.00 250.00,524.00
             250.00,524.00 250.00,500.00 250.00,500.00 Z
           M 674.00,525.00
           C 674.00,525.00 673.00,525.00 673.00,525.00
             673.00,525.00 674.00,526.00 674.00,526.00
             674.00,526.00 674.00,525.00 674.00,525.00 Z
           M 300.00,525.00
           C 300.00,525.00 374.00,525.00 374.00,525.00
             374.00,525.00 374.00,574.00 374.00,574.00
             374.00,574.00 350.00,574.00 350.00,574.00
             350.00,574.00 350.00,549.00 350.00,549.00
             350.00,549.00 324.00,549.00 324.00,549.00
             324.00,549.00 324.00,574.00 324.00,574.00
             324.00,574.00 300.00,574.00 300.00,574.00
             300.00,574.00 300.00,525.00 300.00,525.00 Z
           M 775.00,525.00
           C 775.00,525.00 799.00,525.00 799.00,525.00
             799.00,525.00 799.00,549.00 799.00,549.00
             799.00,549.00 775.00,549.00 775.00,549.00
             775.00,549.00 775.00,525.00 775.00,525.00 Z
           M 825.00,525.00
           C 825.00,525.00 849.00,525.00 849.00,525.00
             849.00,525.00 849.00,549.00 849.00,549.00
             849.00,549.00 825.00,549.00 825.00,549.00
             825.00,549.00 825.00,525.00 825.00,525.00 Z
           M 351.00,548.00
           C 351.00,548.00 350.00,548.00 350.00,548.00
             350.00,548.00 351.00,549.00 351.00,549.00
             351.00,549.00 351.00,548.00 351.00,548.00 Z
           M 724.00,548.00
           C 724.00,548.00 723.00,548.00 723.00,548.00
             723.00,548.00 724.00,549.00 724.00,549.00
             724.00,549.00 724.00,548.00 724.00,548.00 Z
           M 100.00,550.00
           C 100.00,550.00 124.00,550.00 124.00,550.00
             124.00,550.00 124.00,600.00 124.00,600.00
             124.00,600.00 150.00,600.00 150.00,600.00
             150.00,600.00 150.00,575.00 150.00,575.00
             150.00,575.00 199.00,575.00 199.00,575.00
             199.00,575.00 199.00,599.00 199.00,599.00
             199.00,599.00 174.00,599.00 174.00,599.00
             174.00,599.00 174.00,624.00 174.00,624.00
             174.00,624.00 100.00,624.00 100.00,624.00
             100.00,624.00 100.00,550.00 100.00,550.00 Z
           M 250.00,550.00
           C 250.00,550.00 274.00,550.00 274.00,550.00
             274.00,550.00 274.00,574.00 274.00,574.00
             274.00,574.00 250.00,574.00 250.00,574.00
             250.00,574.00 250.00,550.00 250.00,550.00 Z
           M 750.00,550.00
           C 750.00,550.00 774.00,550.00 774.00,550.00
             774.00,550.00 774.00,575.00 774.00,575.00
             774.00,575.00 799.00,575.00 799.00,575.00
             799.00,575.00 799.00,599.00 799.00,599.00
             799.00,599.00 750.00,599.00 750.00,599.00
             750.00,599.00 750.00,550.00 750.00,550.00 Z
           M 451.00,573.00
           C 451.00,573.00 450.00,573.00 450.00,573.00
             450.00,573.00 451.00,574.00 451.00,574.00
             451.00,574.00 451.00,573.00 451.00,573.00 Z
           M 225.00,575.00
           C 225.00,575.00 249.00,575.00 249.00,575.00
             249.00,575.00 249.00,600.00 249.00,600.00
             249.00,600.00 275.00,600.00 275.00,600.00
             275.00,600.00 275.00,575.00 275.00,575.00
             275.00,575.00 299.00,575.00 299.00,575.00
             299.00,575.00 299.00,624.00 299.00,624.00
             299.00,624.00 225.00,624.00 225.00,624.00
             225.00,624.00 225.00,575.00 225.00,575.00 Z
           M 599.00,598.00
           C 599.00,598.00 598.00,598.00 598.00,598.00
             598.00,598.00 599.00,599.00 599.00,599.00
             599.00,599.00 599.00,598.00 599.00,598.00 Z
           M 674.00,623.00
           C 674.00,623.00 673.00,623.00 673.00,623.00
             673.00,623.00 674.00,624.00 674.00,624.00
             674.00,624.00 674.00,623.00 674.00,623.00 Z
           M 825.00,625.00
           C 825.00,625.00 849.00,625.00 849.00,625.00
             849.00,625.00 849.00,650.00 849.00,650.00
             849.00,650.00 874.00,650.00 874.00,650.00
             874.00,650.00 874.00,674.00 874.00,674.00
             874.00,674.00 849.00,674.00 849.00,674.00
             849.00,674.00 849.00,699.00 849.00,699.00
             849.00,699.00 825.00,699.00 825.00,699.00
             825.00,699.00 825.00,625.00 825.00,625.00 Z
           M 351.00,648.00
           C 351.00,648.00 350.00,648.00 350.00,648.00
             350.00,648.00 351.00,649.00 351.00,649.00
             351.00,649.00 351.00,648.00 351.00,648.00 Z
           M 401.00,648.00
           C 401.00,648.00 400.00,648.00 400.00,648.00
             400.00,648.00 401.00,649.00 401.00,649.00
             401.00,649.00 401.00,648.00 401.00,648.00 Z
           M 476.00,648.00
           C 476.00,648.00 475.00,648.00 475.00,648.00
             475.00,648.00 476.00,649.00 476.00,649.00
             476.00,649.00 476.00,648.00 476.00,648.00 Z
           M 624.00,648.00
           C 624.00,648.00 623.00,648.00 623.00,648.00
             623.00,648.00 624.00,649.00 624.00,649.00
             624.00,649.00 624.00,648.00 624.00,648.00 Z
           M 100.00,650.00
           C 100.00,650.00 174.00,650.00 174.00,650.00
             174.00,650.00 174.00,724.00 174.00,724.00
             174.00,724.00 150.00,724.00 150.00,724.00
             150.00,724.00 150.00,699.00 150.00,699.00
             150.00,699.00 125.00,699.00 125.00,699.00
             125.00,699.00 125.00,674.00 125.00,674.00
             125.00,674.00 100.00,674.00 100.00,674.00
             100.00,674.00 100.00,650.00 100.00,650.00 Z
           M 200.00,650.00
           C 200.00,650.00 224.00,650.00 224.00,650.00
             224.00,650.00 224.00,675.00 224.00,675.00
             224.00,675.00 249.00,675.00 249.00,675.00
             249.00,675.00 249.00,699.00 249.00,699.00
             249.00,699.00 224.00,699.00 224.00,699.00
             224.00,699.00 224.00,724.00 224.00,724.00
             224.00,724.00 200.00,724.00 200.00,724.00
             200.00,724.00 200.00,650.00 200.00,650.00 Z
           M 250.00,650.00
           C 250.00,650.00 299.00,650.00 299.00,650.00
             299.00,650.00 299.00,699.00 299.00,699.00
             299.00,699.00 275.00,699.00 275.00,699.00
             275.00,699.00 275.00,674.00 275.00,674.00
             275.00,674.00 250.00,674.00 250.00,674.00
             250.00,674.00 250.00,650.00 250.00,650.00 Z
           M 126.00,673.00
           C 126.00,673.00 125.00,673.00 125.00,673.00
             125.00,673.00 126.00,674.00 126.00,674.00
             126.00,674.00 126.00,673.00 126.00,673.00 Z
           M 276.00,673.00
           C 276.00,673.00 275.00,673.00 275.00,673.00
             275.00,673.00 276.00,674.00 276.00,674.00
             276.00,674.00 276.00,673.00 276.00,673.00 Z
           M 774.00,673.00
           C 774.00,673.00 773.00,673.00 773.00,673.00
             773.00,673.00 774.00,674.00 774.00,674.00
             774.00,674.00 774.00,673.00 774.00,673.00 Z
           M 849.00,673.00
           C 849.00,673.00 848.00,673.00 848.00,673.00
             848.00,673.00 849.00,674.00 849.00,674.00
             849.00,674.00 849.00,673.00 849.00,673.00 Z
           M 325.00,675.00
           C 325.00,675.00 349.00,675.00 349.00,675.00
             349.00,675.00 349.00,699.00 349.00,699.00
             349.00,699.00 325.00,699.00 325.00,699.00
             325.00,699.00 325.00,675.00 325.00,675.00 Z
           M 500.00,675.00
           C 500.00,675.00 524.00,675.00 524.00,675.00
             524.00,675.00 524.00,700.00 524.00,700.00
             524.00,700.00 549.00,700.00 549.00,700.00
             549.00,700.00 549.00,724.00 549.00,724.00
             549.00,724.00 475.00,724.00 475.00,724.00
             475.00,724.00 475.00,700.00 475.00,700.00
             475.00,700.00 500.00,700.00 500.00,700.00
             500.00,700.00 500.00,675.00 500.00,675.00 Z
           M 550.00,675.00
           C 550.00,675.00 574.00,675.00 574.00,675.00
             574.00,675.00 574.00,699.00 574.00,699.00
             574.00,699.00 550.00,699.00 550.00,699.00
             550.00,699.00 550.00,675.00 550.00,675.00 Z
           M 625.00,675.00
           C 625.00,675.00 649.00,675.00 649.00,675.00
             649.00,675.00 649.00,724.00 649.00,724.00
             649.00,724.00 599.00,724.00 599.00,724.00
             599.00,724.00 599.00,749.00 599.00,749.00
             599.00,749.00 550.00,749.00 550.00,749.00
             550.00,749.00 550.00,725.00 550.00,725.00
             550.00,725.00 575.00,725.00 575.00,725.00
             575.00,725.00 575.00,700.00 575.00,700.00
             575.00,700.00 625.00,700.00 625.00,700.00
             625.00,700.00 625.00,675.00 625.00,675.00 Z
           M 151.00,698.00
           C 151.00,698.00 150.00,698.00 150.00,698.00
             150.00,698.00 151.00,699.00 151.00,699.00
             151.00,699.00 151.00,698.00 151.00,698.00 Z
           M 100.00,700.00
           C 100.00,700.00 124.00,700.00 124.00,700.00
             124.00,700.00 124.00,724.00 124.00,724.00
             124.00,724.00 100.00,724.00 100.00,724.00
             100.00,724.00 100.00,700.00 100.00,700.00 Z
           M 250.00,700.00
           C 250.00,700.00 274.00,700.00 274.00,700.00
             274.00,700.00 274.00,724.00 274.00,724.00
             274.00,724.00 250.00,724.00 250.00,724.00
             250.00,724.00 250.00,700.00 250.00,700.00 Z
           M 300.00,700.00
           C 300.00,700.00 324.00,700.00 324.00,700.00
             324.00,700.00 324.00,749.00 324.00,749.00
             324.00,749.00 300.00,749.00 300.00,749.00
             300.00,749.00 300.00,700.00 300.00,700.00 Z
           M 376.00,723.00
           C 376.00,723.00 375.00,723.00 375.00,723.00
             375.00,723.00 376.00,724.00 376.00,724.00
             376.00,724.00 376.00,723.00 376.00,723.00 Z
           M 599.00,723.00
           C 599.00,723.00 598.00,723.00 598.00,723.00
             598.00,723.00 599.00,724.00 599.00,724.00
             599.00,724.00 599.00,723.00 599.00,723.00 Z
           M 724.00,723.00
           C 724.00,723.00 723.00,723.00 723.00,723.00
             723.00,723.00 724.00,724.00 724.00,724.00
             724.00,724.00 724.00,723.00 724.00,723.00 Z
           M 800.00,724.00
           C 800.00,724.00 724.00,724.00 724.00,724.00
             724.00,724.00 724.00,800.00 724.00,800.00
             724.00,800.00 800.00,800.00 800.00,800.00
             800.00,800.00 800.00,724.00 800.00,724.00 Z
           M 450.00,725.00
           C 450.00,725.00 474.00,725.00 474.00,725.00
             474.00,725.00 474.00,749.00 474.00,749.00
             474.00,749.00 450.00,749.00 450.00,749.00
             450.00,749.00 450.00,725.00 450.00,725.00 Z
           M 650.00,725.00
           C 650.00,725.00 674.00,725.00 674.00,725.00
             674.00,725.00 674.00,824.00 674.00,824.00
             674.00,824.00 650.00,824.00 650.00,824.00
             650.00,824.00 650.00,725.00 650.00,725.00 Z
           M 900.00,725.00
           C 900.00,725.00 924.00,725.00 924.00,725.00
             924.00,725.00 924.00,749.00 924.00,749.00
             924.00,749.00 900.00,749.00 900.00,749.00
             900.00,749.00 900.00,725.00 900.00,725.00 Z
           M 100.00,750.00
           C 100.00,750.00 274.00,750.00 274.00,750.00
             274.00,750.00 274.00,924.00 274.00,924.00
             274.00,924.00 100.00,924.00 100.00,924.00
             100.00,924.00 100.00,750.00 100.00,750.00 Z
           M 600.00,750.00
           C 600.00,750.00 624.00,750.00 624.00,750.00
             624.00,750.00 624.00,849.00 624.00,849.00
             624.00,849.00 575.00,849.00 575.00,849.00
             575.00,849.00 575.00,775.00 575.00,775.00
             575.00,775.00 600.00,775.00 600.00,775.00
             600.00,775.00 600.00,750.00 600.00,750.00 Z
           M 750.00,750.00
           C 750.00,750.00 774.00,750.00 774.00,750.00
             774.00,750.00 774.00,774.00 774.00,774.00
             774.00,774.00 750.00,774.00 750.00,774.00
             750.00,774.00 750.00,750.00 750.00,750.00 Z
           M 251.00,773.00
           C 251.00,773.00 250.00,773.00 250.00,773.00
             250.00,773.00 251.00,774.00 251.00,774.00
             251.00,774.00 251.00,773.00 251.00,773.00 Z
           M 401.00,773.00
           C 401.00,773.00 400.00,773.00 400.00,773.00
             400.00,773.00 401.00,774.00 401.00,774.00
             401.00,774.00 401.00,773.00 401.00,773.00 Z
           M 824.00,773.00
           C 824.00,773.00 823.00,773.00 823.00,773.00
             823.00,773.00 824.00,774.00 824.00,774.00
             824.00,774.00 824.00,773.00 824.00,773.00 Z
           M 250.00,774.00
           C 250.00,774.00 124.00,774.00 124.00,774.00
             124.00,774.00 124.00,900.00 124.00,900.00
             124.00,900.00 250.00,900.00 250.00,900.00
             250.00,900.00 250.00,774.00 250.00,774.00 Z
           M 300.00,775.00
           C 300.00,775.00 324.00,775.00 324.00,775.00
             324.00,775.00 324.00,799.00 324.00,799.00
             324.00,799.00 300.00,799.00 300.00,799.00
             300.00,799.00 300.00,775.00 300.00,775.00 Z
           M 450.00,775.00
           C 450.00,775.00 474.00,775.00 474.00,775.00
             474.00,775.00 474.00,799.00 474.00,799.00
             474.00,799.00 450.00,799.00 450.00,799.00
             450.00,799.00 450.00,775.00 450.00,775.00 Z
           M 150.00,800.00
           C 150.00,800.00 224.00,800.00 224.00,800.00
             224.00,800.00 224.00,874.00 224.00,874.00
             224.00,874.00 150.00,874.00 150.00,874.00
             150.00,874.00 150.00,800.00 150.00,800.00 Z
           M 875.00,800.00
           C 875.00,800.00 924.00,800.00 924.00,800.00
             924.00,800.00 924.00,824.00 924.00,824.00
             924.00,824.00 899.00,824.00 899.00,824.00
             899.00,824.00 899.00,849.00 899.00,849.00
             899.00,849.00 875.00,849.00 875.00,849.00
             875.00,849.00 875.00,800.00 875.00,800.00 Z
           M 774.00,823.00
           C 774.00,823.00 773.00,823.00 773.00,823.00
             773.00,823.00 774.00,824.00 774.00,824.00
             774.00,824.00 774.00,823.00 774.00,823.00 Z
           M 824.00,823.00
           C 824.00,823.00 823.00,823.00 823.00,823.00
             823.00,823.00 824.00,824.00 824.00,824.00
             824.00,824.00 824.00,823.00 824.00,823.00 Z
           M 300.00,825.00
           C 300.00,825.00 324.00,825.00 324.00,825.00
             324.00,825.00 324.00,849.00 324.00,849.00
             324.00,849.00 300.00,849.00 300.00,849.00
             300.00,849.00 300.00,825.00 300.00,825.00 Z
           M 350.00,825.00
           C 350.00,825.00 374.00,825.00 374.00,825.00
             374.00,825.00 374.00,874.00 374.00,874.00
             374.00,874.00 349.00,874.00 349.00,874.00
             349.00,874.00 349.00,900.00 349.00,900.00
             349.00,900.00 374.00,900.00 374.00,900.00
             374.00,900.00 374.00,924.00 374.00,924.00
             374.00,924.00 300.00,924.00 300.00,924.00
             300.00,924.00 300.00,900.00 300.00,900.00
             300.00,900.00 325.00,900.00 325.00,900.00
             325.00,900.00 325.00,850.00 325.00,850.00
             325.00,850.00 350.00,850.00 350.00,850.00
             350.00,850.00 350.00,825.00 350.00,825.00 Z
           M 525.00,850.00
           C 525.00,850.00 574.00,850.00 574.00,850.00
             574.00,850.00 574.00,875.00 574.00,875.00
             574.00,875.00 599.00,875.00 599.00,875.00
             599.00,875.00 599.00,899.00 599.00,899.00
             599.00,899.00 574.00,899.00 574.00,899.00
             574.00,899.00 574.00,924.00 574.00,924.00
             574.00,924.00 550.00,924.00 550.00,924.00
             550.00,924.00 550.00,899.00 550.00,899.00
             550.00,899.00 524.00,899.00 524.00,899.00
             524.00,899.00 524.00,924.00 524.00,924.00
             524.00,924.00 500.00,924.00 500.00,924.00
             500.00,924.00 500.00,899.00 500.00,899.00
             500.00,899.00 475.00,899.00 475.00,899.00
             475.00,899.00 475.00,875.00 475.00,875.00
             475.00,875.00 525.00,875.00 525.00,875.00
             525.00,875.00 525.00,850.00 525.00,850.00 Z
           M 700.00,850.00
           C 700.00,850.00 749.00,850.00 749.00,850.00
             749.00,850.00 749.00,875.00 749.00,875.00
             749.00,875.00 774.00,875.00 774.00,875.00
             774.00,875.00 774.00,924.00 774.00,924.00
             774.00,924.00 700.00,924.00 700.00,924.00
             700.00,924.00 700.00,899.00 700.00,899.00
             700.00,899.00 649.00,899.00 649.00,899.00
             649.00,899.00 649.00,924.00 649.00,924.00
             649.00,924.00 625.00,924.00 625.00,924.00
             625.00,924.00 625.00,875.00 625.00,875.00
             625.00,875.00 700.00,875.00 700.00,875.00
             700.00,875.00 700.00,850.00 700.00,850.00 Z
           M 900.00,850.00
           C 900.00,850.00 924.00,850.00 924.00,850.00
             924.00,850.00 924.00,874.00 924.00,874.00
             924.00,874.00 900.00,874.00 900.00,874.00
             900.00,874.00 900.00,850.00 900.00,850.00 Z
           M 375.00,875.00
           C 375.00,875.00 399.00,875.00 399.00,875.00
             399.00,875.00 399.00,899.00 399.00,899.00
             399.00,899.00 375.00,899.00 375.00,899.00
             375.00,899.00 375.00,875.00 375.00,875.00 Z
           M 400.00,900.00
           C 400.00,900.00 424.00,900.00 424.00,900.00
             424.00,900.00 424.00,924.00 424.00,924.00
             424.00,924.00 400.00,924.00 400.00,924.00
             400.00,924.00 400.00,900.00 400.00,900.00 Z
           M 450.00,900.00
           C 450.00,900.00 474.00,900.00 474.00,900.00
             474.00,900.00 474.00,924.00 474.00,924.00
             474.00,924.00 450.00,924.00 450.00,924.00
             450.00,924.00 450.00,900.00 450.00,900.00 Z
           M 800.00,900.00
           C 800.00,900.00 824.00,900.00 824.00,900.00
             824.00,900.00 824.00,924.00 824.00,924.00
             824.00,924.00 800.00,924.00 800.00,924.00
             800.00,924.00 800.00,900.00 800.00,900.00 Z
           M 875.00,900.00
           C 875.00,900.00 899.00,900.00 899.00,900.00
             899.00,900.00 899.00,924.00 899.00,924.00
             899.00,924.00 875.00,924.00 875.00,924.00
             875.00,924.00 875.00,900.00 875.00,900.00 Z" />
</svg>
