<?xml version="1.0" encoding="UTF-8" standalone="no"?>
<!DOCTYPE svg PUBLIC "-//W3C//DTD SVG 20010904//EN"
              "http://www.w3.org/TR/2001/REC-SVG-20010904/DTD/svg10.dtd">

<svg xmlns="http://www.w3.org/2000/svg"
     width="120px" height="120px"
     viewBox="-10 -10 140 140">

      <defs>
          <linearGradient id="myLinearGradient3" x1="0%" y1="0%" x2="100%" y2="100%" spreadMethod="pad">
             <stop offset="0%"   stop-color="#333" stop-opacity="1"/>
             <stop offset="100%" stop-color="#777" stop-opacity="1" />
          </linearGradient>
      </defs>

      <rect x="-10" y="-10" width="138px" height="138px" rx="20" ry="20"
          style="fill:url(#myLinearGradient3); stroke: #fff; stroke-width: 4;" />

  <path id="Selection"
        fill="white" stroke="white" stroke-width="0"
        d="M 30.00,2.00
           C 30.00,2.00 30.00,30.00 30.00,30.00
             30.00,30.00 2.00,30.00 2.00,30.00
             2.00,30.00 2.00,2.00 2.00,2.00
             2.00,2.00 30.00,2.00 30.00,2.00 Z
           M 38.00,2.00
           C 38.00,2.00 38.00,6.00 38.00,6.00
             38.00,6.00 42.00,6.00 42.00,6.00
             42.00,6.00 42.00,2.00 42.00,2.00
             42.00,2.00 46.00,2.00 46.00,2.00
             46.00,2.00 46.00,14.00 46.00,14.00
             46.00,14.00 50.00,14.00 50.00,14.00
             50.00,14.00 50.00,10.00 50.00,10.00
             50.00,10.00 54.00,10.00 54.00,10.00
             54.00,10.00 54.00,6.00 54.00,6.00
             54.00,6.00 50.00,6.00 50.00,6.00
             50.00,6.00 50.00,2.00 50.00,2.00
             50.00,2.00 66.00,2.00 66.00,2.00
             66.00,2.00 66.00,10.00 66.00,10.00
             66.00,10.00 62.00,10.00 62.00,10.00
             62.00,10.00 62.00,14.00 62.00,14.00
             62.00,14.00 66.00,14.00 66.00,14.00
             66.00,14.00 66.00,22.00 66.00,22.00
             66.00,22.00 62.00,22.00 62.00,22.00
             62.00,22.00 62.00,34.00 62.00,34.00
             62.00,34.00 70.00,34.00 70.00,34.00
             70.00,34.00 70.00,30.00 70.00,30.00
             70.00,30.00 66.00,30.00 66.00,30.00
             66.00,30.00 66.00,26.00 66.00,26.00
             66.00,26.00 70.00,26.00 70.00,26.00
             70.00,26.00 70.00,30.00 70.00,30.00
             70.00,30.00 74.00,30.00 74.00,30.00
             74.00,30.00 74.00,26.00 74.00,26.00
             74.00,26.00 78.00,26.00 78.00,26.00
             78.00,26.00 78.00,30.00 78.00,30.00
             78.00,30.00 82.00,30.00 82.00,30.00
             82.00,30.00 82.00,26.00 82.00,26.00
             82.00,26.00 86.00,26.00 86.00,26.00
             86.00,26.00 86.00,34.00 86.00,34.00
             86.00,34.00 90.00,34.00 90.00,34.00
             90.00,34.00 90.00,42.00 90.00,42.00
             90.00,42.00 74.00,42.00 74.00,42.00
             74.00,42.00 74.00,46.00 74.00,46.00
             74.00,46.00 82.00,46.00 82.00,46.00
             82.00,46.00 82.00,54.00 82.00,54.00
             82.00,54.00 78.00,54.00 78.00,54.00
             78.00,54.00 78.00,58.00 78.00,58.00
             78.00,58.00 86.00,58.00 86.00,58.00
             86.00,58.00 86.00,62.00 86.00,62.00
             86.00,62.00 90.00,62.00 90.00,62.00
             90.00,62.00 90.00,70.00 90.00,70.00
             90.00,70.00 86.00,70.00 86.00,70.00
             86.00,70.00 86.00,74.00 86.00,74.00
             86.00,74.00 82.00,74.00 82.00,74.00
             82.00,74.00 82.00,78.00 82.00,78.00
             82.00,78.00 74.00,78.00 74.00,78.00
             74.00,78.00 74.00,74.00 74.00,74.00
             74.00,74.00 70.00,74.00 70.00,74.00
             70.00,74.00 70.00,86.00 70.00,86.00
             70.00,86.00 74.00,86.00 74.00,86.00
             74.00,86.00 74.00,90.00 74.00,90.00
             74.00,90.00 82.00,90.00 82.00,90.00
             82.00,90.00 82.00,82.00 82.00,82.00
             82.00,82.00 90.00,82.00 90.00,82.00
             90.00,82.00 90.00,78.00 90.00,78.00
             90.00,78.00 94.00,78.00 94.00,78.00
             94.00,78.00 94.00,74.00 94.00,74.00
             94.00,74.00 98.00,74.00 98.00,74.00
             98.00,74.00 98.00,70.00 98.00,70.00
             98.00,70.00 102.00,70.00 102.00,70.00
             102.00,70.00 102.00,66.00 102.00,66.00
             102.00,66.00 98.00,66.00 98.00,66.00
             98.00,66.00 98.00,58.00 98.00,58.00
             98.00,58.00 90.00,58.00 90.00,58.00
             90.00,58.00 90.00,46.00 90.00,46.00
             90.00,46.00 106.00,46.00 106.00,46.00
             106.00,46.00 106.00,34.00 106.00,34.00
             106.00,34.00 118.00,34.00 118.00,34.00
             118.00,34.00 118.00,38.00 118.00,38.00
             118.00,38.00 114.00,38.00 114.00,38.00
             114.00,38.00 114.00,42.00 114.00,42.00
             114.00,42.00 110.00,42.00 110.00,42.00
             110.00,42.00 110.00,46.00 110.00,46.00
             110.00,46.00 106.00,46.00 106.00,46.00
             106.00,46.00 106.00,50.00 106.00,50.00
             106.00,50.00 94.00,50.00 94.00,50.00
             94.00,50.00 94.00,54.00 94.00,54.00
             94.00,54.00 114.00,54.00 114.00,54.00
             114.00,54.00 114.00,46.00 114.00,46.00
             114.00,46.00 118.00,46.00 118.00,46.00
             118.00,46.00 118.00,66.00 118.00,66.00
             118.00,66.00 114.00,66.00 114.00,66.00
             114.00,66.00 114.00,58.00 114.00,58.00
             114.00,58.00 110.00,58.00 110.00,58.00
             110.00,58.00 110.00,66.00 110.00,66.00
             110.00,66.00 106.00,66.00 106.00,66.00
             106.00,66.00 106.00,70.00 106.00,70.00
             106.00,70.00 114.00,70.00 114.00,70.00
             114.00,70.00 114.00,74.00 114.00,74.00
             114.00,74.00 118.00,74.00 118.00,74.00
             118.00,74.00 118.00,78.00 118.00,78.00
             118.00,78.00 114.00,78.00 114.00,78.00
             114.00,78.00 114.00,74.00 114.00,74.00
             114.00,74.00 106.00,74.00 106.00,74.00
             106.00,74.00 106.00,78.00 106.00,78.00
             106.00,78.00 110.00,78.00 110.00,78.00
             110.00,78.00 110.00,82.00 110.00,82.00
             110.00,82.00 114.00,82.00 114.00,82.00
             114.00,82.00 114.00,86.00 114.00,86.00
             114.00,86.00 106.00,86.00 106.00,86.00
             106.00,86.00 106.00,94.00 106.00,94.00
             106.00,94.00 102.00,94.00 102.00,94.00
             102.00,94.00 102.00,98.00 102.00,98.00
             102.00,98.00 106.00,98.00 106.00,98.00
             106.00,98.00 106.00,102.00 106.00,102.00
             106.00,102.00 98.00,102.00 98.00,102.00
             98.00,102.00 98.00,106.00 98.00,106.00
             98.00,106.00 102.00,106.00 102.00,106.00
             102.00,106.00 102.00,110.00 102.00,110.00
             102.00,110.00 106.00,110.00 106.00,110.00
             106.00,110.00 106.00,106.00 106.00,106.00
             106.00,106.00 110.00,106.00 110.00,106.00
             110.00,106.00 110.00,102.00 110.00,102.00
             110.00,102.00 114.00,102.00 114.00,102.00
             114.00,102.00 114.00,94.00 114.00,94.00
             114.00,94.00 118.00,94.00 118.00,94.00
             118.00,94.00 118.00,102.00 118.00,102.00
             118.00,102.00 114.00,102.00 114.00,102.00
             114.00,102.00 114.00,106.00 114.00,106.00
             114.00,106.00 118.00,106.00 118.00,106.00
             118.00,106.00 118.00,114.00 118.00,114.00
             118.00,114.00 114.00,114.00 114.00,114.00
             114.00,114.00 114.00,110.00 114.00,110.00
             114.00,110.00 110.00,110.00 110.00,110.00
             110.00,110.00 110.00,114.00 110.00,114.00
             110.00,114.00 102.00,114.00 102.00,114.00
             102.00,114.00 102.00,118.00 102.00,118.00
             102.00,118.00 78.00,118.00 78.00,118.00
             78.00,118.00 78.00,114.00 78.00,114.00
             78.00,114.00 90.00,114.00 90.00,114.00
             90.00,114.00 90.00,110.00 90.00,110.00
             90.00,110.00 94.00,110.00 94.00,110.00
             94.00,110.00 94.00,102.00 94.00,102.00
             94.00,102.00 90.00,102.00 90.00,102.00
             90.00,102.00 90.00,106.00 90.00,106.00
             90.00,106.00 82.00,106.00 82.00,106.00
             82.00,106.00 82.00,102.00 82.00,102.00
             82.00,102.00 70.00,102.00 70.00,102.00
             70.00,102.00 70.00,106.00 70.00,106.00
             70.00,106.00 66.00,106.00 66.00,106.00
             66.00,106.00 66.00,110.00 66.00,110.00
             66.00,110.00 70.00,110.00 70.00,110.00
             70.00,110.00 70.00,118.00 70.00,118.00
             70.00,118.00 62.00,118.00 62.00,118.00
             62.00,118.00 62.00,110.00 62.00,110.00
             62.00,110.00 58.00,110.00 58.00,110.00
             58.00,110.00 58.00,106.00 58.00,106.00
             58.00,106.00 50.00,106.00 50.00,106.00
             50.00,106.00 50.00,102.00 50.00,102.00
             50.00,102.00 46.00,102.00 46.00,102.00
             46.00,102.00 46.00,110.00 46.00,110.00
             46.00,110.00 50.00,110.00 50.00,110.00
             50.00,110.00 50.00,114.00 50.00,114.00
             50.00,114.00 54.00,114.00 54.00,114.00
             54.00,114.00 54.00,118.00 54.00,118.00
             54.00,118.00 50.00,118.00 50.00,118.00
             50.00,118.00 50.00,114.00 50.00,114.00
             50.00,114.00 42.00,114.00 42.00,114.00
             42.00,114.00 42.00,118.00 42.00,118.00
             42.00,118.00 34.00,118.00 34.00,118.00
             34.00,118.00 34.00,114.00 34.00,114.00
             34.00,114.00 42.00,114.00 42.00,114.00
             42.00,114.00 42.00,110.00 42.00,110.00
             42.00,110.00 38.00,110.00 38.00,110.00
             38.00,110.00 38.00,106.00 38.00,106.00
             38.00,106.00 34.00,106.00 34.00,106.00
             34.00,106.00 34.00,86.00 34.00,86.00
             34.00,86.00 26.00,86.00 26.00,86.00
             26.00,86.00 26.00,82.00 26.00,82.00
             26.00,82.00 22.00,82.00 22.00,82.00
             22.00,82.00 22.00,78.00 22.00,78.00
             22.00,78.00 18.00,78.00 18.00,78.00
             18.00,78.00 18.00,74.00 18.00,74.00
             18.00,74.00 14.00,74.00 14.00,74.00
             14.00,74.00 14.00,78.00 14.00,78.00
             14.00,78.00 10.00,78.00 10.00,78.00
             10.00,78.00 10.00,86.00 10.00,86.00
             10.00,86.00 2.00,86.00 2.00,86.00
             2.00,86.00 2.00,62.00 2.00,62.00
             2.00,62.00 10.00,62.00 10.00,62.00
             10.00,62.00 10.00,58.00 10.00,58.00
             10.00,58.00 2.00,58.00 2.00,58.00
             2.00,58.00 2.00,54.00 2.00,54.00
             2.00,54.00 6.00,54.00 6.00,54.00
             6.00,54.00 6.00,50.00 6.00,50.00
             6.00,50.00 10.00,50.00 10.00,50.00
             10.00,50.00 10.00,58.00 10.00,58.00
             10.00,58.00 14.00,58.00 14.00,58.00
             14.00,58.00 14.00,54.00 14.00,54.00
             14.00,54.00 18.00,54.00 18.00,54.00
             18.00,54.00 18.00,50.00 18.00,50.00
             18.00,50.00 14.00,50.00 14.00,50.00
             14.00,50.00 14.00,46.00 14.00,46.00
             14.00,46.00 6.00,46.00 6.00,46.00
             6.00,46.00 6.00,42.00 6.00,42.00
             6.00,42.00 2.00,42.00 2.00,42.00
             2.00,42.00 2.00,34.00 2.00,34.00
             2.00,34.00 6.00,34.00 6.00,34.00
             6.00,34.00 6.00,42.00 6.00,42.00
             6.00,42.00 14.00,42.00 14.00,42.00
             14.00,42.00 14.00,46.00 14.00,46.00
             14.00,46.00 18.00,46.00 18.00,46.00
             18.00,46.00 18.00,50.00 18.00,50.00
             18.00,50.00 22.00,50.00 22.00,50.00
             22.00,50.00 22.00,42.00 22.00,42.00
             22.00,42.00 18.00,42.00 18.00,42.00
             18.00,42.00 18.00,38.00 18.00,38.00
             18.00,38.00 14.00,38.00 14.00,38.00
             14.00,38.00 14.00,34.00 14.00,34.00
             14.00,34.00 38.00,34.00 38.00,34.00
             38.00,34.00 38.00,42.00 38.00,42.00
             38.00,42.00 46.00,42.00 46.00,42.00
             46.00,42.00 46.00,34.00 46.00,34.00
             46.00,34.00 42.00,34.00 42.00,34.00
             42.00,34.00 42.00,26.00 42.00,26.00
             42.00,26.00 38.00,26.00 38.00,26.00
             38.00,26.00 38.00,30.00 38.00,30.00
             38.00,30.00 34.00,30.00 34.00,30.00
             34.00,30.00 34.00,26.00 34.00,26.00
             34.00,26.00 38.00,26.00 38.00,26.00
             38.00,26.00 38.00,22.00 38.00,22.00
             38.00,22.00 34.00,22.00 34.00,22.00
             34.00,22.00 34.00,18.00 34.00,18.00
             34.00,18.00 38.00,18.00 38.00,18.00
             38.00,18.00 38.00,14.00 38.00,14.00
             38.00,14.00 34.00,14.00 34.00,14.00
             34.00,14.00 34.00,2.00 34.00,2.00
             34.00,2.00 38.00,2.00 38.00,2.00 Z
           M 74.00,2.00
           C 74.00,2.00 74.00,10.00 74.00,10.00
             74.00,10.00 78.00,10.00 78.00,10.00
             78.00,10.00 78.00,14.00 78.00,14.00
             78.00,14.00 82.00,14.00 82.00,14.00
             82.00,14.00 82.00,10.00 82.00,10.00
             82.00,10.00 86.00,10.00 86.00,10.00
             86.00,10.00 86.00,22.00 86.00,22.00
             86.00,22.00 78.00,22.00 78.00,22.00
             78.00,22.00 78.00,14.00 78.00,14.00
             78.00,14.00 74.00,14.00 74.00,14.00
             74.00,14.00 74.00,10.00 74.00,10.00
             74.00,10.00 70.00,10.00 70.00,10.00
             70.00,10.00 70.00,2.00 70.00,2.00
             70.00,2.00 74.00,2.00 74.00,2.00 Z
           M 86.00,2.00
           C 86.00,2.00 86.00,6.00 86.00,6.00
             86.00,6.00 78.00,6.00 78.00,6.00
             78.00,6.00 78.00,2.00 78.00,2.00
             78.00,2.00 86.00,2.00 86.00,2.00 Z
           M 118.00,2.00
           C 118.00,2.00 118.00,30.00 118.00,30.00
             118.00,30.00 90.00,30.00 90.00,30.00
             90.00,30.00 90.00,2.00 90.00,2.00
             90.00,2.00 118.00,2.00 118.00,2.00 Z
           M 6.00,6.00
           C 6.00,6.00 6.00,26.00 6.00,26.00
             6.00,26.00 26.00,26.00 26.00,26.00
             26.00,26.00 26.00,6.00 26.00,6.00
             26.00,6.00 6.00,6.00 6.00,6.00 Z
           M 94.00,6.00
           C 94.00,6.00 94.00,26.00 94.00,26.00
             94.00,26.00 114.00,26.00 114.00,26.00
             114.00,26.00 114.00,6.00 114.00,6.00
             114.00,6.00 94.00,6.00 94.00,6.00 Z
           M 22.00,10.00
           C 22.00,10.00 22.00,22.00 22.00,22.00
             22.00,22.00 10.00,22.00 10.00,22.00
             10.00,22.00 10.00,10.00 10.00,10.00
             10.00,10.00 22.00,10.00 22.00,10.00 Z
           M 110.00,10.00
           C 110.00,10.00 110.00,22.00 110.00,22.00
             110.00,22.00 98.00,22.00 98.00,22.00
             98.00,22.00 98.00,10.00 98.00,10.00
             98.00,10.00 110.00,10.00 110.00,10.00 Z
           M 54.00,14.00
           C 54.00,14.00 54.00,18.00 54.00,18.00
             54.00,18.00 58.00,18.00 58.00,18.00
             58.00,18.00 58.00,14.00 58.00,14.00
             58.00,14.00 54.00,14.00 54.00,14.00 Z
           M 42.00,18.00
           C 42.00,18.00 42.00,22.00 42.00,22.00
             42.00,22.00 46.00,22.00 46.00,22.00
             46.00,22.00 46.00,34.00 46.00,34.00
             46.00,34.00 50.00,34.00 50.00,34.00
             50.00,34.00 50.00,18.00 50.00,18.00
             50.00,18.00 42.00,18.00 42.00,18.00 Z
           M 58.00,18.00
           C 58.00,18.00 58.00,22.00 58.00,22.00
             58.00,22.00 62.00,22.00 62.00,22.00
             62.00,22.00 62.00,18.00 62.00,18.00
             62.00,18.00 58.00,18.00 58.00,18.00 Z
           M 74.00,18.00
           C 74.00,18.00 74.00,22.00 74.00,22.00
             74.00,22.00 70.00,22.00 70.00,22.00
             70.00,22.00 70.00,18.00 70.00,18.00
             70.00,18.00 74.00,18.00 74.00,18.00 Z
           M 54.00,26.00
           C 54.00,26.00 54.00,34.00 54.00,34.00
             54.00,34.00 58.00,34.00 58.00,34.00
             58.00,34.00 58.00,26.00 58.00,26.00
             58.00,26.00 54.00,26.00 54.00,26.00 Z
           M 74.00,34.00
           C 74.00,34.00 74.00,38.00 74.00,38.00
             74.00,38.00 78.00,38.00 78.00,38.00
             78.00,38.00 78.00,34.00 78.00,34.00
             78.00,34.00 74.00,34.00 74.00,34.00 Z
           M 82.00,34.00
           C 82.00,34.00 82.00,38.00 82.00,38.00
             82.00,38.00 86.00,38.00 86.00,38.00
             86.00,38.00 86.00,34.00 86.00,34.00
             86.00,34.00 82.00,34.00 82.00,34.00 Z
           M 102.00,34.00
           C 102.00,34.00 102.00,42.00 102.00,42.00
             102.00,42.00 94.00,42.00 94.00,42.00
             94.00,42.00 94.00,38.00 94.00,38.00
             94.00,38.00 98.00,38.00 98.00,38.00
             98.00,38.00 98.00,34.00 98.00,34.00
             98.00,34.00 102.00,34.00 102.00,34.00 Z
           M 26.00,38.00
           C 26.00,38.00 26.00,42.00 26.00,42.00
             26.00,42.00 30.00,42.00 30.00,42.00
             30.00,42.00 30.00,38.00 30.00,38.00
             30.00,38.00 26.00,38.00 26.00,38.00 Z
           M 54.00,38.00
           C 54.00,38.00 54.00,50.00 54.00,50.00
             54.00,50.00 58.00,50.00 58.00,50.00
             58.00,50.00 58.00,38.00 58.00,38.00
             58.00,38.00 54.00,38.00 54.00,38.00 Z
           M 62.00,38.00
           C 62.00,38.00 62.00,46.00 62.00,46.00
             62.00,46.00 66.00,46.00 66.00,46.00
             66.00,46.00 66.00,50.00 66.00,50.00
             66.00,50.00 62.00,50.00 62.00,50.00
             62.00,50.00 62.00,54.00 62.00,54.00
             62.00,54.00 54.00,54.00 54.00,54.00
             54.00,54.00 54.00,62.00 54.00,62.00
             54.00,62.00 58.00,62.00 58.00,62.00
             58.00,62.00 58.00,58.00 58.00,58.00
             58.00,58.00 66.00,58.00 66.00,58.00
             66.00,58.00 66.00,62.00 66.00,62.00
             66.00,62.00 70.00,62.00 70.00,62.00
             70.00,62.00 70.00,66.00 70.00,66.00
             70.00,66.00 66.00,66.00 66.00,66.00
             66.00,66.00 66.00,70.00 66.00,70.00
             66.00,70.00 62.00,70.00 62.00,70.00
             62.00,70.00 62.00,66.00 62.00,66.00
             62.00,66.00 54.00,66.00 54.00,66.00
             54.00,66.00 54.00,70.00 54.00,70.00
             54.00,70.00 50.00,70.00 50.00,70.00
             50.00,70.00 50.00,66.00 50.00,66.00
             50.00,66.00 46.00,66.00 46.00,66.00
             46.00,66.00 46.00,70.00 46.00,70.00
             46.00,70.00 42.00,70.00 42.00,70.00
             42.00,70.00 42.00,66.00 42.00,66.00
             42.00,66.00 46.00,66.00 46.00,66.00
             46.00,66.00 46.00,62.00 46.00,62.00
             46.00,62.00 50.00,62.00 50.00,62.00
             50.00,62.00 50.00,46.00 50.00,46.00
             50.00,46.00 46.00,46.00 46.00,46.00
             46.00,46.00 46.00,50.00 46.00,50.00
             46.00,50.00 42.00,50.00 42.00,50.00
             42.00,50.00 42.00,54.00 42.00,54.00
             42.00,54.00 46.00,54.00 46.00,54.00
             46.00,54.00 46.00,58.00 46.00,58.00
             46.00,58.00 42.00,58.00 42.00,58.00
             42.00,58.00 42.00,62.00 42.00,62.00
             42.00,62.00 38.00,62.00 38.00,62.00
             38.00,62.00 38.00,70.00 38.00,70.00
             38.00,70.00 26.00,70.00 26.00,70.00
             26.00,70.00 26.00,74.00 26.00,74.00
             26.00,74.00 34.00,74.00 34.00,74.00
             34.00,74.00 34.00,78.00 34.00,78.00
             34.00,78.00 38.00,78.00 38.00,78.00
             38.00,78.00 38.00,86.00 38.00,86.00
             38.00,86.00 46.00,86.00 46.00,86.00
             46.00,86.00 46.00,90.00 46.00,90.00
             46.00,90.00 54.00,90.00 54.00,90.00
             54.00,90.00 54.00,86.00 54.00,86.00
             54.00,86.00 50.00,86.00 50.00,86.00
             50.00,86.00 50.00,78.00 50.00,78.00
             50.00,78.00 54.00,78.00 54.00,78.00
             54.00,78.00 54.00,74.00 54.00,74.00
             54.00,74.00 62.00,74.00 62.00,74.00
             62.00,74.00 62.00,78.00 62.00,78.00
             62.00,78.00 66.00,78.00 66.00,78.00
             66.00,78.00 66.00,74.00 66.00,74.00
             66.00,74.00 70.00,74.00 70.00,74.00
             70.00,74.00 70.00,70.00 70.00,70.00
             70.00,70.00 74.00,70.00 74.00,70.00
             74.00,70.00 74.00,50.00 74.00,50.00
             74.00,50.00 70.00,50.00 70.00,50.00
             70.00,50.00 70.00,38.00 70.00,38.00
             70.00,38.00 62.00,38.00 62.00,38.00 Z
           M 34.00,42.00
           C 34.00,42.00 34.00,46.00 34.00,46.00
             34.00,46.00 38.00,46.00 38.00,46.00
             38.00,46.00 38.00,42.00 38.00,42.00
             38.00,42.00 34.00,42.00 34.00,42.00 Z
           M 26.00,46.00
           C 26.00,46.00 26.00,50.00 26.00,50.00
             26.00,50.00 30.00,50.00 30.00,50.00
             30.00,50.00 30.00,46.00 30.00,46.00
             30.00,46.00 26.00,46.00 26.00,46.00 Z
           M 34.00,50.00
           C 34.00,50.00 34.00,54.00 34.00,54.00
             34.00,54.00 38.00,54.00 38.00,54.00
             38.00,54.00 38.00,50.00 38.00,50.00
             38.00,50.00 34.00,50.00 34.00,50.00 Z
           M 18.00,54.00
           C 18.00,54.00 18.00,58.00 18.00,58.00
             18.00,58.00 30.00,58.00 30.00,58.00
             30.00,58.00 30.00,62.00 30.00,62.00
             30.00,62.00 18.00,62.00 18.00,62.00
             18.00,62.00 18.00,74.00 18.00,74.00
             18.00,74.00 22.00,74.00 22.00,74.00
             22.00,74.00 22.00,66.00 22.00,66.00
             22.00,66.00 34.00,66.00 34.00,66.00
             34.00,66.00 34.00,54.00 34.00,54.00
             34.00,54.00 18.00,54.00 18.00,54.00 Z
           M 38.00,54.00
           C 38.00,54.00 38.00,58.00 38.00,58.00
             38.00,58.00 42.00,58.00 42.00,58.00
             42.00,58.00 42.00,54.00 42.00,54.00
             42.00,54.00 38.00,54.00 38.00,54.00 Z
           M 102.00,58.00
           C 102.00,58.00 102.00,66.00 102.00,66.00
             102.00,66.00 106.00,66.00 106.00,66.00
             106.00,66.00 106.00,58.00 106.00,58.00
             106.00,58.00 102.00,58.00 102.00,58.00 Z
           M 50.00,62.00
           C 50.00,62.00 50.00,66.00 50.00,66.00
             50.00,66.00 54.00,66.00 54.00,66.00
             54.00,66.00 54.00,62.00 54.00,62.00
             54.00,62.00 50.00,62.00 50.00,62.00 Z
           M 62.00,62.00
           C 62.00,62.00 62.00,66.00 62.00,66.00
             62.00,66.00 66.00,66.00 66.00,66.00
             66.00,66.00 66.00,62.00 66.00,62.00
             66.00,62.00 62.00,62.00 62.00,62.00 Z
           M 78.00,62.00
           C 78.00,62.00 78.00,70.00 78.00,70.00
             78.00,70.00 86.00,70.00 86.00,70.00
             86.00,70.00 86.00,62.00 86.00,62.00
             86.00,62.00 78.00,62.00 78.00,62.00 Z
           M 10.00,70.00
           C 10.00,70.00 10.00,74.00 10.00,74.00
             10.00,74.00 14.00,74.00 14.00,74.00
             14.00,74.00 14.00,70.00 14.00,70.00
             14.00,70.00 10.00,70.00 10.00,70.00 Z
           M 102.00,70.00
           C 102.00,70.00 102.00,74.00 102.00,74.00
             102.00,74.00 106.00,74.00 106.00,74.00
             106.00,74.00 106.00,70.00 106.00,70.00
             106.00,70.00 102.00,70.00 102.00,70.00 Z
           M 22.00,74.00
           C 22.00,74.00 22.00,78.00 22.00,78.00
             22.00,78.00 26.00,78.00 26.00,78.00
             26.00,78.00 26.00,74.00 26.00,74.00
             26.00,74.00 22.00,74.00 22.00,74.00 Z
           M 46.00,74.00
           C 46.00,74.00 46.00,78.00 46.00,78.00
             46.00,78.00 42.00,78.00 42.00,78.00
             42.00,78.00 42.00,74.00 42.00,74.00
             42.00,74.00 46.00,74.00 46.00,74.00 Z
           M 26.00,78.00
           C 26.00,78.00 26.00,82.00 26.00,82.00
             26.00,82.00 30.00,82.00 30.00,82.00
             30.00,82.00 30.00,78.00 30.00,78.00
             30.00,78.00 26.00,78.00 26.00,78.00 Z
           M 58.00,78.00
           C 58.00,78.00 58.00,102.00 58.00,102.00
             58.00,102.00 62.00,102.00 62.00,102.00
             62.00,102.00 62.00,106.00 62.00,106.00
             62.00,106.00 66.00,106.00 66.00,106.00
             66.00,106.00 66.00,94.00 66.00,94.00
             66.00,94.00 62.00,94.00 62.00,94.00
             62.00,94.00 62.00,90.00 62.00,90.00
             62.00,90.00 66.00,90.00 66.00,90.00
             66.00,90.00 66.00,82.00 66.00,82.00
             66.00,82.00 62.00,82.00 62.00,82.00
             62.00,82.00 62.00,78.00 62.00,78.00
             62.00,78.00 58.00,78.00 58.00,78.00 Z
           M 94.00,78.00
           C 94.00,78.00 94.00,82.00 94.00,82.00
             94.00,82.00 98.00,82.00 98.00,82.00
             98.00,82.00 98.00,78.00 98.00,78.00
             98.00,78.00 94.00,78.00 94.00,78.00 Z
           M 86.00,86.00
           C 86.00,86.00 86.00,98.00 86.00,98.00
             86.00,98.00 98.00,98.00 98.00,98.00
             98.00,98.00 98.00,86.00 98.00,86.00
             98.00,86.00 86.00,86.00 86.00,86.00 Z
           M 66.00,90.00
           C 66.00,90.00 66.00,94.00 66.00,94.00
             66.00,94.00 74.00,94.00 74.00,94.00
             74.00,94.00 74.00,90.00 74.00,90.00
             74.00,90.00 66.00,90.00 66.00,90.00 Z
           M 30.00,90.00
           C 30.00,90.00 30.00,118.00 30.00,118.00
             30.00,118.00 2.00,118.00 2.00,118.00
             2.00,118.00 2.00,90.00 2.00,90.00
             2.00,90.00 30.00,90.00 30.00,90.00 Z
           M 94.00,90.00
           C 94.00,90.00 94.00,94.00 94.00,94.00
             94.00,94.00 90.00,94.00 90.00,94.00
             90.00,94.00 90.00,90.00 90.00,90.00
             90.00,90.00 94.00,90.00 94.00,90.00 Z
           M 6.00,94.00
           C 6.00,94.00 6.00,114.00 6.00,114.00
             6.00,114.00 26.00,114.00 26.00,114.00
             26.00,114.00 26.00,94.00 26.00,94.00
             26.00,94.00 6.00,94.00 6.00,94.00 Z
           M 42.00,94.00
           C 42.00,94.00 42.00,98.00 42.00,98.00
             42.00,98.00 50.00,98.00 50.00,98.00
             50.00,98.00 50.00,94.00 50.00,94.00
             50.00,94.00 42.00,94.00 42.00,94.00 Z
           M 74.00,94.00
           C 74.00,94.00 74.00,98.00 74.00,98.00
             74.00,98.00 82.00,98.00 82.00,98.00
             82.00,98.00 82.00,94.00 82.00,94.00
             82.00,94.00 74.00,94.00 74.00,94.00 Z
           M 50.00,98.00
           C 50.00,98.00 50.00,102.00 50.00,102.00
             50.00,102.00 54.00,102.00 54.00,102.00
             54.00,102.00 54.00,98.00 54.00,98.00
             54.00,98.00 50.00,98.00 50.00,98.00 Z
           M 22.00,98.00
           C 22.00,98.00 22.00,110.00 22.00,110.00
             22.00,110.00 10.00,110.00 10.00,110.00
             10.00,110.00 10.00,98.00 10.00,98.00
             10.00,98.00 22.00,98.00 22.00,98.00 Z
           M 78.00,106.00
           C 78.00,106.00 78.00,110.00 78.00,110.00
             78.00,110.00 74.00,110.00 74.00,110.00
             74.00,110.00 74.00,106.00 74.00,106.00
             74.00,106.00 78.00,106.00 78.00,106.00 Z" />
</svg>
