<?xml version="1.0" encoding="UTF-8" standalone="no"?>
<!DOCTYPE svg PUBLIC "-//W3C//DTD SVG 20010904//EN"
              "http://www.w3.org/TR/2001/REC-SVG-20010904/DTD/svg10.dtd">

<svg xmlns="http://www.w3.org/2000/svg"
     width="120px" height="120px"
     viewBox="0 0 300 300">

      <defs>
          <linearGradient id="myLinearGradient3" x1="0%" y1="0%" x2="100%" y2="100%" spreadMethod="pad">
             <stop offset="0%"   stop-color="#444" stop-opacity="1"/>
             <stop offset="100%" stop-color="#444" stop-opacity="1" />
          </linearGradient>
      </defs>
 
      <rect x="2" y="2" width="296px" height="296px" rx="57" ry="57"
          style="fill:url(#myLinearGradient3); stroke: white; stroke-width: 4;" />

  <path id="Selection"
        fill="white" stroke="none" stroke-width="1"
        d="M 78.06,51.02
           C 72.26,55.55 73.99,63.19 74.00,70.00
             74.00,72.48 73.81,75.73 75.02,77.94
             78.39,84.10 92.78,82.00 99.00,82.00
             99.00,82.00 178.00,82.00 178.00,82.00
             187.18,82.06 191.83,85.36 192.00,95.00
             192.09,100.35 192.65,106.23 189.85,111.00
             186.36,116.96 180.70,119.04 175.00,122.29
             175.00,122.29 145.00,138.00 145.00,138.00
             139.79,140.61 132.63,143.55 129.06,148.18
             125.91,152.27 124.07,160.86 124.00,166.00
             123.95,170.00 123.46,178.52 125.45,181.77
             126.17,182.94 126.96,183.69 128.21,184.26
             131.26,185.64 146.01,185.60 148.40,183.26
             150.38,181.33 149.90,176.95 150.59,174.00
             152.18,167.21 153.68,163.56 160.00,160.04
             160.00,160.04 201.00,140.50 201.00,140.50
             209.92,136.05 216.93,133.32 223.14,125.00
             231.33,114.04 231.65,87.87 228.43,75.00
             226.77,68.33 226.09,64.27 220.91,59.09
             214.27,52.45 201.15,50.11 192.00,50.00
             192.00,50.00 137.00,50.00 137.00,50.00
             137.00,50.00 98.00,50.00 98.00,50.00
             92.15,50.00 83.38,49.19 78.06,51.02 Z
           M 122.23,217.02
           C 117.13,221.72 118.99,233.35 119.00,240.00
             119.01,243.72 118.55,248.73 122.23,250.98
             125.06,252.71 139.85,252.01 144.00,252.00
             147.18,251.99 151.08,252.26 153.69,250.11
             156.02,248.19 155.94,245.76 156.00,243.00
             156.00,243.00 156.00,225.00 156.00,225.00
             155.94,222.24 156.02,219.81 153.69,217.89
             151.50,216.09 148.68,216.05 146.00,216.00
             140.09,215.90 127.26,215.18 122.23,217.02 Z" />
</svg>
