<?xml version="1.0" encoding="UTF-8" standalone="no"?>
<!DOCTYPE svg PUBLIC "-//W3C//DTD SVG 20010904//EN"
              "http://www.w3.org/TR/2001/REC-SVG-20010904/DTD/svg10.dtd">

<svg xmlns="http://www.w3.org/2000/svg"
     width="120px" height="120px"
     viewBox="0 0 1024 1024">

      <defs>
          <linearGradient id="myLinearGradient3" x1="0%" y1="0%" x2="100%" y2="100%" spreadMethod="pad">
             <stop offset="0%"   stop-color="#333" stop-opacity="1"/>
             <stop offset="100%" stop-color="#555" stop-opacity="1" />
          </linearGradient>
      </defs>
 
      <rect x="4" y="4" width="1016px" height="1016px" rx="200" ry="200"
          style="fill:url(#myLinearGradient3); stroke: white; stroke-width: 8;" />

  <path id="Selection"
        fill="white" stroke="none" stroke-width="1"
        d="M 532.00,169.00
           C 532.00,169.00 560.00,170.84 560.00,170.84
             609.39,176.12 660.47,195.02 694.91,232.00
             719.91,258.85 736.94,300.12 737.00,337.00
             737.00,337.00 737.00,359.00 737.00,359.00
             736.75,380.33 729.48,405.14 719.74,424.00
             684.59,492.12 600.37,520.90 556.13,573.00
             541.99,589.66 534.26,610.35 532.17,632.00
             532.17,632.00 531.00,665.00 531.00,665.00
             531.00,681.52 533.05,695.34 517.00,705.89
             514.08,707.82 511.31,708.92 508.00,709.97
             503.33,711.46 500.90,711.94 496.00,712.00
             496.00,712.00 488.00,712.00 488.00,712.00
             483.38,711.94 479.43,711.31 475.00,709.96
             469.34,708.23 465.34,706.00 461.02,701.91
             449.60,691.11 451.00,679.26 451.00,665.00
             451.00,665.00 451.00,640.00 451.00,640.00
             451.00,640.00 452.00,630.00 452.00,630.00
             452.00,630.00 452.00,622.00 452.00,622.00
             453.09,607.35 456.04,589.79 461.05,576.00
             473.32,542.25 499.52,513.89 528.00,492.88
             528.00,492.88 605.00,436.75 605.00,436.75
             632.43,413.90 651.56,390.09 652.00,353.00
             652.00,353.00 652.00,349.00 652.00,349.00
             651.40,297.77 617.81,262.30 570.00,248.71
             557.11,245.04 541.39,242.07 528.00,242.00
             528.00,242.00 513.00,241.04 513.00,241.04
             513.00,241.04 505.00,242.04 505.00,242.04
             505.00,242.04 495.00,242.04 495.00,242.04
             460.48,245.46 428.11,257.43 403.01,282.04
             389.92,294.87 380.19,310.61 372.26,327.00
             367.63,336.55 364.19,350.05 358.90,358.00
             347.49,375.14 327.53,377.21 309.00,372.24
             304.69,371.09 299.91,368.85 296.00,366.69
             292.49,364.74 289.90,362.87 287.09,359.96
             274.06,346.46 277.74,331.73 283.31,316.00
             283.31,316.00 293.14,292.00 293.14,292.00
             293.14,292.00 302.01,275.00 302.01,275.00
             302.01,275.00 313.15,258.00 313.15,258.00
             346.70,211.82 394.25,184.48 450.00,174.42
             463.34,172.02 483.69,169.02 497.00,169.00
             503.01,168.99 509.03,169.27 515.00,168.42
             522.14,167.56 525.09,168.97 532.00,169.00 Z
           M 507.00,768.24
           C 561.35,781.03 567.22,858.07 521.00,882.22
             516.08,884.79 507.48,887.91 502.00,888.70
             482.25,891.56 460.72,887.16 446.04,872.91
             421.64,849.23 422.99,800.77 450.00,779.52
             460.93,770.91 470.67,768.44 484.00,766.42
             491.44,765.52 499.72,766.52 507.00,768.24 Z" />
</svg>
